M48
;GenerationSoftware,Autodesk,EAGLE,9.6.2*%
;CreationDate,2024-12-19T06:04:38Z*%
FMAT,2
ICI,OFF
METRIC,TZ,000.000
T10C0.305
T9C0.350
T8C0.800
T7C0.889
T6C0.920
T5C1.000
T4C1.400
T3C2.300
T2C2.500
T1C3.175
%
G90
M71
T1
X17780Y5080
X96520Y5080
X17780Y45720
X96520Y45720
T2
X26035Y31750
X26035Y11430
T3
X64860Y42080
X78000Y42080
T4
X59790Y20915
X59790Y15915
X90070Y20915
X90070Y15915
X77570Y15915
X77570Y20915
X72290Y20915
X72290Y15915
T5
X26035Y20320
X26035Y22860
X26035Y27940
X26035Y25400
X33577Y30480
X30077Y30480
X38735Y12700
X26035Y15240
X26035Y17780
X38735Y30480
X38735Y27940
X38735Y25400
X38735Y22860
X38735Y20320
X38735Y17780
X38735Y15240
T6
X74930Y39370
X72430Y39370
X70430Y39370
X67930Y39370
T7
X75370Y8610
X52510Y8610
X43180Y43180
X45720Y43180
X48260Y43180
X19050Y22860
X19050Y25400
X19050Y13970
X19050Y16510
X47430Y36550
X47430Y34010
X38100Y43180
X35560Y43180
X33020Y43180
X27940Y43180
X25400Y43180
X90610Y8610
X90610Y11150
X88070Y8610
X88070Y11150
X85530Y8610
X85530Y11150
X82990Y8610
X82990Y11150
X80450Y8610
X80450Y11150
X77910Y8610
X77910Y11150
X49970Y36550
X75370Y11150
X72830Y8610
X72830Y11150
X70290Y8610
X70290Y11150
X67750Y8610
X67750Y11150
X65210Y8610
X65210Y11150
X62670Y8610
X62670Y11150
X60130Y8610
X60130Y11150
X57590Y8610
X57590Y11150
X55050Y8610
X55050Y11150
X49970Y34010
X52510Y11150
X49970Y8610
X49970Y11150
X47430Y8610
X47430Y11150
X90610Y34010
X90610Y36550
X88070Y34010
X88070Y36550
X85530Y34010
X85530Y36550
X82990Y34010
X82990Y36550
X80450Y34010
X80450Y36550
X77910Y34010
X77910Y36550
X75370Y34010
X75370Y36550
X72830Y34010
X72830Y36550
X70290Y34010
X70290Y36550
X67750Y34010
X67750Y36550
X65210Y34010
X65210Y36550
X62670Y34010
X62670Y36550
X60130Y34010
X60130Y36550
X57590Y34010
X57590Y36550
X55050Y34010
X55050Y36550
X52510Y34010
X52510Y36550
T8
X49530Y21982
X49530Y15482
T9
X84455Y30480
T10
X92710Y23495
X74930Y23495
X91440Y45720
X81280Y26670
X64135Y26670
M30