G04 EAGLE Gerber RS-274X export*
G75*
%MOMM*%
%FSLAX34Y34*%
%LPD*%
%INCopper Layer 2*%
%IPPOS*%
%AMOC8*
5,1,8,0,0,1.08239X$1,22.5*%
G01*
%ADD10C,1.244600*%
%ADD11C,1.960000*%
%ADD12C,1.120000*%
%ADD13C,1.288000*%
%ADD14C,3.220000*%
%ADD15C,1.400000*%
%ADD16C,3.500000*%
%ADD17C,4.191000*%
%ADD18C,0.609600*%
%ADD19C,0.654800*%

G36*
X1012308Y2556D02*
X1012308Y2556D01*
X1012427Y2563D01*
X1012465Y2576D01*
X1012506Y2581D01*
X1012616Y2624D01*
X1012729Y2661D01*
X1012764Y2683D01*
X1012801Y2698D01*
X1012897Y2767D01*
X1012998Y2831D01*
X1013026Y2861D01*
X1013059Y2884D01*
X1013135Y2976D01*
X1013216Y3063D01*
X1013236Y3098D01*
X1013261Y3129D01*
X1013312Y3237D01*
X1013370Y3341D01*
X1013380Y3381D01*
X1013397Y3417D01*
X1013419Y3534D01*
X1013449Y3649D01*
X1013453Y3709D01*
X1013457Y3729D01*
X1013455Y3750D01*
X1013459Y3810D01*
X1013459Y504190D01*
X1013444Y504308D01*
X1013437Y504427D01*
X1013424Y504465D01*
X1013419Y504506D01*
X1013376Y504616D01*
X1013339Y504729D01*
X1013317Y504764D01*
X1013302Y504801D01*
X1013233Y504897D01*
X1013169Y504998D01*
X1013139Y505026D01*
X1013116Y505059D01*
X1013024Y505135D01*
X1012937Y505216D01*
X1012902Y505236D01*
X1012871Y505261D01*
X1012763Y505312D01*
X1012659Y505370D01*
X1012619Y505380D01*
X1012583Y505397D01*
X1012466Y505419D01*
X1012351Y505449D01*
X1012291Y505453D01*
X1012271Y505457D01*
X1012250Y505455D01*
X1012190Y505459D01*
X130810Y505459D01*
X130692Y505444D01*
X130573Y505437D01*
X130535Y505424D01*
X130494Y505419D01*
X130384Y505376D01*
X130271Y505339D01*
X130236Y505317D01*
X130199Y505302D01*
X130103Y505233D01*
X130002Y505169D01*
X129974Y505139D01*
X129941Y505116D01*
X129865Y505024D01*
X129784Y504937D01*
X129764Y504902D01*
X129739Y504871D01*
X129688Y504763D01*
X129630Y504659D01*
X129620Y504619D01*
X129603Y504583D01*
X129581Y504466D01*
X129551Y504351D01*
X129547Y504291D01*
X129543Y504271D01*
X129545Y504250D01*
X129541Y504190D01*
X129541Y3810D01*
X129556Y3692D01*
X129563Y3573D01*
X129576Y3535D01*
X129581Y3494D01*
X129624Y3384D01*
X129661Y3271D01*
X129683Y3236D01*
X129698Y3199D01*
X129767Y3103D01*
X129831Y3002D01*
X129861Y2974D01*
X129884Y2941D01*
X129976Y2865D01*
X130063Y2784D01*
X130098Y2764D01*
X130129Y2739D01*
X130237Y2688D01*
X130341Y2630D01*
X130381Y2620D01*
X130417Y2603D01*
X130534Y2581D01*
X130649Y2551D01*
X130709Y2547D01*
X130729Y2543D01*
X130750Y2545D01*
X130810Y2541D01*
X1012190Y2541D01*
X1012308Y2556D01*
G37*
%LPC*%
G36*
X960526Y433704D02*
X960526Y433704D01*
X951891Y437281D01*
X945281Y443891D01*
X941704Y452526D01*
X941704Y461874D01*
X945281Y470509D01*
X951891Y477119D01*
X960526Y480696D01*
X969874Y480696D01*
X978509Y477119D01*
X985119Y470509D01*
X988696Y461874D01*
X988696Y452526D01*
X985119Y443891D01*
X978509Y437281D01*
X969874Y433704D01*
X960526Y433704D01*
G37*
%LPD*%
%LPC*%
G36*
X173126Y433704D02*
X173126Y433704D01*
X164491Y437281D01*
X157881Y443891D01*
X154304Y452526D01*
X154304Y461874D01*
X157881Y470509D01*
X164491Y477119D01*
X173126Y480696D01*
X182474Y480696D01*
X191109Y477119D01*
X197719Y470509D01*
X201296Y461874D01*
X201296Y452526D01*
X197719Y443891D01*
X191109Y437281D01*
X182474Y433704D01*
X173126Y433704D01*
G37*
%LPD*%
%LPC*%
G36*
X173126Y27304D02*
X173126Y27304D01*
X164491Y30881D01*
X157881Y37491D01*
X154304Y46126D01*
X154304Y55474D01*
X157881Y64109D01*
X164491Y70719D01*
X173126Y74296D01*
X182474Y74296D01*
X191109Y70719D01*
X197719Y64109D01*
X201296Y55474D01*
X201296Y46126D01*
X197719Y37491D01*
X191109Y30881D01*
X182474Y27304D01*
X173126Y27304D01*
G37*
%LPD*%
%LPC*%
G36*
X960526Y27304D02*
X960526Y27304D01*
X951891Y30881D01*
X945281Y37491D01*
X941704Y46126D01*
X941704Y55474D01*
X945281Y64109D01*
X951891Y70719D01*
X960526Y74296D01*
X969874Y74296D01*
X978509Y70719D01*
X985119Y64109D01*
X988696Y55474D01*
X988696Y46126D01*
X985119Y37491D01*
X978509Y30881D01*
X969874Y27304D01*
X960526Y27304D01*
G37*
%LPD*%
%LPC*%
G36*
X256364Y297459D02*
X256364Y297459D01*
X248998Y300510D01*
X243360Y306148D01*
X240309Y313514D01*
X240309Y321486D01*
X243360Y328852D01*
X248998Y334490D01*
X256364Y337541D01*
X264336Y337541D01*
X271702Y334490D01*
X277340Y328852D01*
X280391Y321486D01*
X280391Y313514D01*
X277340Y306148D01*
X271702Y300510D01*
X264336Y297459D01*
X256364Y297459D01*
G37*
%LPD*%
%LPC*%
G36*
X256364Y94259D02*
X256364Y94259D01*
X248998Y97310D01*
X243360Y102948D01*
X240309Y110314D01*
X240309Y118286D01*
X243360Y125652D01*
X248998Y131290D01*
X256364Y134341D01*
X264336Y134341D01*
X271702Y131290D01*
X277340Y125652D01*
X280391Y118286D01*
X280391Y110314D01*
X277340Y102948D01*
X271702Y97310D01*
X264336Y94259D01*
X256364Y94259D01*
G37*
%LPD*%
%LPC*%
G36*
X776292Y402159D02*
X776292Y402159D01*
X769441Y404997D01*
X764197Y410241D01*
X761359Y417092D01*
X761359Y424508D01*
X764197Y431359D01*
X769441Y436603D01*
X776292Y439441D01*
X783708Y439441D01*
X790559Y436603D01*
X795803Y431359D01*
X798641Y424508D01*
X798641Y417092D01*
X795803Y410241D01*
X790559Y404997D01*
X783708Y402159D01*
X776292Y402159D01*
G37*
%LPD*%
%LPC*%
G36*
X644892Y402159D02*
X644892Y402159D01*
X638041Y404997D01*
X632797Y410241D01*
X629959Y417092D01*
X629959Y424508D01*
X632797Y431359D01*
X638041Y436603D01*
X644892Y439441D01*
X652308Y439441D01*
X659159Y436603D01*
X664403Y431359D01*
X667241Y424508D01*
X667241Y417092D01*
X664403Y410241D01*
X659159Y404997D01*
X652308Y402159D01*
X644892Y402159D01*
G37*
%LPD*%
%LPC*%
G36*
X702514Y384719D02*
X702514Y384719D01*
X699213Y386086D01*
X696686Y388613D01*
X695319Y391914D01*
X695319Y395486D01*
X696686Y398787D01*
X699213Y401314D01*
X702514Y402681D01*
X706086Y402681D01*
X709387Y401314D01*
X711914Y398787D01*
X713127Y395857D01*
X713196Y395736D01*
X713261Y395613D01*
X713275Y395598D01*
X713285Y395580D01*
X713382Y395480D01*
X713475Y395378D01*
X713492Y395367D01*
X713506Y395352D01*
X713625Y395279D01*
X713741Y395203D01*
X713760Y395196D01*
X713777Y395186D01*
X713910Y395145D01*
X714042Y395100D01*
X714062Y395098D01*
X714081Y395092D01*
X714220Y395085D01*
X714359Y395074D01*
X714379Y395078D01*
X714399Y395077D01*
X714535Y395105D01*
X714672Y395129D01*
X714691Y395137D01*
X714710Y395141D01*
X714836Y395203D01*
X714962Y395259D01*
X714978Y395272D01*
X714996Y395281D01*
X715102Y395371D01*
X715210Y395458D01*
X715223Y395474D01*
X715238Y395487D01*
X715318Y395601D01*
X715402Y395712D01*
X715414Y395737D01*
X715421Y395747D01*
X715428Y395767D01*
X715473Y395857D01*
X716686Y398787D01*
X719213Y401314D01*
X722514Y402681D01*
X726086Y402681D01*
X729387Y401314D01*
X731914Y398787D01*
X733281Y395486D01*
X733281Y391914D01*
X731914Y388613D01*
X729387Y386086D01*
X726086Y384719D01*
X722514Y384719D01*
X719213Y386086D01*
X716686Y388613D01*
X715473Y391543D01*
X715404Y391664D01*
X715339Y391787D01*
X715325Y391802D01*
X715315Y391820D01*
X715218Y391920D01*
X715125Y392022D01*
X715108Y392034D01*
X715094Y392048D01*
X714976Y392121D01*
X714859Y392197D01*
X714840Y392204D01*
X714823Y392214D01*
X714690Y392255D01*
X714558Y392300D01*
X714538Y392302D01*
X714519Y392308D01*
X714380Y392315D01*
X714241Y392326D01*
X714221Y392322D01*
X714201Y392323D01*
X714065Y392295D01*
X713928Y392271D01*
X713909Y392263D01*
X713890Y392259D01*
X713765Y392198D01*
X713638Y392141D01*
X713622Y392128D01*
X713604Y392119D01*
X713498Y392029D01*
X713390Y391942D01*
X713377Y391926D01*
X713362Y391913D01*
X713282Y391799D01*
X713198Y391688D01*
X713186Y391663D01*
X713179Y391653D01*
X713172Y391633D01*
X713127Y391543D01*
X711914Y388613D01*
X709387Y386086D01*
X706086Y384719D01*
X702514Y384719D01*
G37*
%LPD*%
%LPC*%
G36*
X898245Y196809D02*
X898245Y196809D01*
X893710Y198688D01*
X890238Y202160D01*
X888359Y206695D01*
X888359Y211605D01*
X890238Y216140D01*
X893710Y219612D01*
X898245Y221491D01*
X903155Y221491D01*
X907690Y219612D01*
X911162Y216140D01*
X913041Y211605D01*
X913041Y206695D01*
X911162Y202160D01*
X907690Y198688D01*
X903155Y196809D01*
X898245Y196809D01*
G37*
%LPD*%
%LPC*%
G36*
X595445Y196809D02*
X595445Y196809D01*
X590910Y198688D01*
X587438Y202160D01*
X585559Y206695D01*
X585559Y211605D01*
X587438Y216140D01*
X590910Y219612D01*
X595445Y221491D01*
X600355Y221491D01*
X604890Y219612D01*
X608362Y216140D01*
X610241Y211605D01*
X610241Y206695D01*
X608362Y202160D01*
X604890Y198688D01*
X600355Y196809D01*
X595445Y196809D01*
G37*
%LPD*%
%LPC*%
G36*
X720445Y196809D02*
X720445Y196809D01*
X715910Y198688D01*
X712438Y202160D01*
X710559Y206695D01*
X710559Y211605D01*
X712438Y216140D01*
X715910Y219612D01*
X720445Y221491D01*
X725355Y221491D01*
X729890Y219612D01*
X733362Y216140D01*
X735241Y211605D01*
X735241Y206695D01*
X733362Y202160D01*
X729890Y198688D01*
X725355Y196809D01*
X720445Y196809D01*
G37*
%LPD*%
%LPC*%
G36*
X773245Y196809D02*
X773245Y196809D01*
X768710Y198688D01*
X765238Y202160D01*
X763359Y206695D01*
X763359Y211605D01*
X765238Y216140D01*
X768710Y219612D01*
X773245Y221491D01*
X778155Y221491D01*
X782690Y219612D01*
X786162Y216140D01*
X788041Y211605D01*
X788041Y206695D01*
X786162Y202160D01*
X782690Y198688D01*
X778155Y196809D01*
X773245Y196809D01*
G37*
%LPD*%
%LPC*%
G36*
X385452Y193659D02*
X385452Y193659D01*
X381946Y195112D01*
X379262Y197796D01*
X377809Y201302D01*
X377809Y205098D01*
X379262Y208604D01*
X381946Y211288D01*
X385452Y212741D01*
X389248Y212741D01*
X392754Y211288D01*
X395438Y208604D01*
X396891Y205098D01*
X396891Y201302D01*
X395438Y197796D01*
X392754Y195112D01*
X389248Y193659D01*
X385452Y193659D01*
G37*
%LPD*%
%LPC*%
G36*
X258452Y142859D02*
X258452Y142859D01*
X254946Y144312D01*
X252262Y146996D01*
X250809Y150502D01*
X250809Y154298D01*
X252262Y157804D01*
X254946Y160488D01*
X258452Y161941D01*
X262248Y161941D01*
X265754Y160488D01*
X268438Y157804D01*
X269891Y154298D01*
X269891Y150502D01*
X268438Y146996D01*
X265754Y144312D01*
X262248Y142859D01*
X258452Y142859D01*
G37*
%LPD*%
%LPC*%
G36*
X258452Y193659D02*
X258452Y193659D01*
X254946Y195112D01*
X252262Y197796D01*
X250809Y201302D01*
X250809Y205098D01*
X252262Y208604D01*
X254946Y211288D01*
X258452Y212741D01*
X262248Y212741D01*
X265754Y211288D01*
X268438Y208604D01*
X269891Y205098D01*
X269891Y201302D01*
X268438Y197796D01*
X265754Y195112D01*
X262248Y193659D01*
X258452Y193659D01*
G37*
%LPD*%
%LPC*%
G36*
X258452Y168259D02*
X258452Y168259D01*
X254946Y169712D01*
X252262Y172396D01*
X250809Y175902D01*
X250809Y179698D01*
X252262Y183204D01*
X254946Y185888D01*
X258452Y187341D01*
X262248Y187341D01*
X265754Y185888D01*
X268438Y183204D01*
X269891Y179698D01*
X269891Y175902D01*
X268438Y172396D01*
X265754Y169712D01*
X262248Y168259D01*
X258452Y168259D01*
G37*
%LPD*%
%LPC*%
G36*
X258452Y219059D02*
X258452Y219059D01*
X254946Y220512D01*
X252262Y223196D01*
X250809Y226702D01*
X250809Y230498D01*
X252262Y234004D01*
X254946Y236688D01*
X258452Y238141D01*
X262248Y238141D01*
X265754Y236688D01*
X268438Y234004D01*
X269891Y230498D01*
X269891Y226702D01*
X268438Y223196D01*
X265754Y220512D01*
X262248Y219059D01*
X258452Y219059D01*
G37*
%LPD*%
%LPC*%
G36*
X258452Y244459D02*
X258452Y244459D01*
X254946Y245912D01*
X252262Y248596D01*
X250809Y252102D01*
X250809Y255898D01*
X252262Y259404D01*
X254946Y262088D01*
X258452Y263541D01*
X262248Y263541D01*
X265754Y262088D01*
X268438Y259404D01*
X269891Y255898D01*
X269891Y252102D01*
X268438Y248596D01*
X265754Y245912D01*
X262248Y244459D01*
X258452Y244459D01*
G37*
%LPD*%
%LPC*%
G36*
X385452Y244459D02*
X385452Y244459D01*
X381946Y245912D01*
X379262Y248596D01*
X377809Y252102D01*
X377809Y255898D01*
X379262Y259404D01*
X381946Y262088D01*
X385452Y263541D01*
X389248Y263541D01*
X392754Y262088D01*
X395438Y259404D01*
X396891Y255898D01*
X396891Y252102D01*
X395438Y248596D01*
X392754Y245912D01*
X389248Y244459D01*
X385452Y244459D01*
G37*
%LPD*%
%LPC*%
G36*
X258452Y269859D02*
X258452Y269859D01*
X254946Y271312D01*
X252262Y273996D01*
X250809Y277502D01*
X250809Y281298D01*
X252262Y284804D01*
X254946Y287488D01*
X258452Y288941D01*
X262248Y288941D01*
X265754Y287488D01*
X268438Y284804D01*
X269891Y281298D01*
X269891Y277502D01*
X268438Y273996D01*
X265754Y271312D01*
X262248Y269859D01*
X258452Y269859D01*
G37*
%LPD*%
%LPC*%
G36*
X385452Y117459D02*
X385452Y117459D01*
X381946Y118912D01*
X379262Y121596D01*
X377809Y125102D01*
X377809Y128898D01*
X379262Y132404D01*
X381946Y135088D01*
X385452Y136541D01*
X389248Y136541D01*
X392754Y135088D01*
X395438Y132404D01*
X396891Y128898D01*
X396891Y125102D01*
X395438Y121596D01*
X392754Y118912D01*
X389248Y117459D01*
X385452Y117459D01*
G37*
%LPD*%
%LPC*%
G36*
X385452Y168259D02*
X385452Y168259D01*
X381946Y169712D01*
X379262Y172396D01*
X377809Y175902D01*
X377809Y179698D01*
X379262Y183204D01*
X381946Y185888D01*
X385452Y187341D01*
X389248Y187341D01*
X392754Y185888D01*
X395438Y183204D01*
X396891Y179698D01*
X396891Y175902D01*
X395438Y172396D01*
X392754Y169712D01*
X389248Y168259D01*
X385452Y168259D01*
G37*
%LPD*%
%LPC*%
G36*
X298872Y295259D02*
X298872Y295259D01*
X295366Y296712D01*
X292682Y299396D01*
X291229Y302902D01*
X291229Y306698D01*
X292682Y310204D01*
X295366Y312888D01*
X298872Y314341D01*
X302668Y314341D01*
X306174Y312888D01*
X308858Y310204D01*
X310311Y306698D01*
X310311Y302902D01*
X308858Y299396D01*
X306174Y296712D01*
X302668Y295259D01*
X298872Y295259D01*
G37*
%LPD*%
%LPC*%
G36*
X333872Y295259D02*
X333872Y295259D01*
X330366Y296712D01*
X327682Y299396D01*
X326229Y302902D01*
X326229Y306698D01*
X327682Y310204D01*
X330366Y312888D01*
X333872Y314341D01*
X337668Y314341D01*
X341174Y312888D01*
X343858Y310204D01*
X345311Y306698D01*
X345311Y302902D01*
X343858Y299396D01*
X341174Y296712D01*
X337668Y295259D01*
X333872Y295259D01*
G37*
%LPD*%
%LPC*%
G36*
X385452Y295259D02*
X385452Y295259D01*
X381946Y296712D01*
X379262Y299396D01*
X377809Y302902D01*
X377809Y306698D01*
X379262Y310204D01*
X381946Y312888D01*
X385452Y314341D01*
X389248Y314341D01*
X392754Y312888D01*
X395438Y310204D01*
X396891Y306698D01*
X396891Y302902D01*
X395438Y299396D01*
X392754Y296712D01*
X389248Y295259D01*
X385452Y295259D01*
G37*
%LPD*%
%LPC*%
G36*
X747514Y384719D02*
X747514Y384719D01*
X744213Y386086D01*
X741686Y388613D01*
X740319Y391914D01*
X740319Y395486D01*
X741686Y398787D01*
X744213Y401314D01*
X747514Y402681D01*
X751086Y402681D01*
X754387Y401314D01*
X756914Y398787D01*
X758281Y395486D01*
X758281Y391914D01*
X756914Y388613D01*
X754387Y386086D01*
X751086Y384719D01*
X747514Y384719D01*
G37*
%LPD*%
%LPC*%
G36*
X624957Y356736D02*
X624957Y356736D01*
X621736Y358070D01*
X619270Y360536D01*
X617936Y363757D01*
X617936Y367243D01*
X619270Y370464D01*
X621736Y372930D01*
X624957Y374264D01*
X628443Y374264D01*
X631664Y372930D01*
X634130Y370464D01*
X635464Y367243D01*
X635464Y363757D01*
X634130Y360536D01*
X631664Y358070D01*
X628443Y356736D01*
X624957Y356736D01*
G37*
%LPD*%
%LPC*%
G36*
X599557Y356736D02*
X599557Y356736D01*
X596336Y358070D01*
X593870Y360536D01*
X592536Y363757D01*
X592536Y367243D01*
X593870Y370464D01*
X596336Y372930D01*
X599557Y374264D01*
X603043Y374264D01*
X606264Y372930D01*
X608730Y370464D01*
X610064Y367243D01*
X610064Y363757D01*
X608730Y360536D01*
X606264Y358070D01*
X603043Y356736D01*
X599557Y356736D01*
G37*
%LPD*%
%LPC*%
G36*
X904357Y356736D02*
X904357Y356736D01*
X901136Y358070D01*
X898670Y360536D01*
X897336Y363757D01*
X897336Y367243D01*
X898670Y370464D01*
X901136Y372930D01*
X904357Y374264D01*
X907843Y374264D01*
X911064Y372930D01*
X913530Y370464D01*
X914864Y367243D01*
X914864Y363757D01*
X913530Y360536D01*
X911064Y358070D01*
X907843Y356736D01*
X904357Y356736D01*
G37*
%LPD*%
%LPC*%
G36*
X878957Y356736D02*
X878957Y356736D01*
X875736Y358070D01*
X873270Y360536D01*
X871936Y363757D01*
X871936Y367243D01*
X873270Y370464D01*
X875736Y372930D01*
X878957Y374264D01*
X882443Y374264D01*
X885664Y372930D01*
X888130Y370464D01*
X889464Y367243D01*
X889464Y363757D01*
X888130Y360536D01*
X885664Y358070D01*
X882443Y356736D01*
X878957Y356736D01*
G37*
%LPD*%
%LPC*%
G36*
X853557Y356736D02*
X853557Y356736D01*
X850336Y358070D01*
X847870Y360536D01*
X846536Y363757D01*
X846536Y367243D01*
X847870Y370464D01*
X850336Y372930D01*
X853557Y374264D01*
X857043Y374264D01*
X860264Y372930D01*
X862730Y370464D01*
X864064Y367243D01*
X864064Y363757D01*
X862730Y360536D01*
X860264Y358070D01*
X857043Y356736D01*
X853557Y356736D01*
G37*
%LPD*%
%LPC*%
G36*
X828157Y356736D02*
X828157Y356736D01*
X824936Y358070D01*
X822470Y360536D01*
X821136Y363757D01*
X821136Y367243D01*
X822470Y370464D01*
X824936Y372930D01*
X828157Y374264D01*
X831643Y374264D01*
X834864Y372930D01*
X837330Y370464D01*
X838664Y367243D01*
X838664Y363757D01*
X837330Y360536D01*
X834864Y358070D01*
X831643Y356736D01*
X828157Y356736D01*
G37*
%LPD*%
%LPC*%
G36*
X802757Y356736D02*
X802757Y356736D01*
X799536Y358070D01*
X797070Y360536D01*
X795736Y363757D01*
X795736Y367243D01*
X797070Y370464D01*
X799536Y372930D01*
X802757Y374264D01*
X806243Y374264D01*
X809464Y372930D01*
X811930Y370464D01*
X813264Y367243D01*
X813264Y363757D01*
X811930Y360536D01*
X809464Y358070D01*
X806243Y356736D01*
X802757Y356736D01*
G37*
%LPD*%
%LPC*%
G36*
X777357Y356736D02*
X777357Y356736D01*
X774136Y358070D01*
X771670Y360536D01*
X770336Y363757D01*
X770336Y367243D01*
X771670Y370464D01*
X774136Y372930D01*
X777357Y374264D01*
X780843Y374264D01*
X784064Y372930D01*
X786530Y370464D01*
X787864Y367243D01*
X787864Y363757D01*
X786530Y360536D01*
X784064Y358070D01*
X780843Y356736D01*
X777357Y356736D01*
G37*
%LPD*%
%LPC*%
G36*
X751957Y356736D02*
X751957Y356736D01*
X748736Y358070D01*
X746270Y360536D01*
X744936Y363757D01*
X744936Y367243D01*
X746270Y370464D01*
X748736Y372930D01*
X751957Y374264D01*
X755443Y374264D01*
X758664Y372930D01*
X761130Y370464D01*
X762464Y367243D01*
X762464Y363757D01*
X761130Y360536D01*
X758664Y358070D01*
X755443Y356736D01*
X751957Y356736D01*
G37*
%LPD*%
%LPC*%
G36*
X726557Y356736D02*
X726557Y356736D01*
X723336Y358070D01*
X720870Y360536D01*
X719536Y363757D01*
X719536Y367243D01*
X720870Y370464D01*
X723336Y372930D01*
X726557Y374264D01*
X730043Y374264D01*
X733264Y372930D01*
X735730Y370464D01*
X737064Y367243D01*
X737064Y363757D01*
X735730Y360536D01*
X733264Y358070D01*
X730043Y356736D01*
X726557Y356736D01*
G37*
%LPD*%
%LPC*%
G36*
X701157Y356736D02*
X701157Y356736D01*
X697936Y358070D01*
X695470Y360536D01*
X694136Y363757D01*
X694136Y367243D01*
X695470Y370464D01*
X697936Y372930D01*
X701157Y374264D01*
X704643Y374264D01*
X707864Y372930D01*
X710330Y370464D01*
X711664Y367243D01*
X711664Y363757D01*
X710330Y360536D01*
X707864Y358070D01*
X704643Y356736D01*
X701157Y356736D01*
G37*
%LPD*%
%LPC*%
G36*
X675757Y356736D02*
X675757Y356736D01*
X672536Y358070D01*
X670070Y360536D01*
X668736Y363757D01*
X668736Y367243D01*
X670070Y370464D01*
X672536Y372930D01*
X675757Y374264D01*
X679243Y374264D01*
X682464Y372930D01*
X684930Y370464D01*
X686264Y367243D01*
X686264Y363757D01*
X684930Y360536D01*
X682464Y358070D01*
X679243Y356736D01*
X675757Y356736D01*
G37*
%LPD*%
%LPC*%
G36*
X650357Y356736D02*
X650357Y356736D01*
X647136Y358070D01*
X644670Y360536D01*
X643336Y363757D01*
X643336Y367243D01*
X644670Y370464D01*
X647136Y372930D01*
X650357Y374264D01*
X653843Y374264D01*
X657064Y372930D01*
X659530Y370464D01*
X660864Y367243D01*
X660864Y363757D01*
X659530Y360536D01*
X657064Y358070D01*
X653843Y356736D01*
X650357Y356736D01*
G37*
%LPD*%
%LPC*%
G36*
X497957Y356736D02*
X497957Y356736D01*
X494736Y358070D01*
X492270Y360536D01*
X490936Y363757D01*
X490936Y367243D01*
X492270Y370464D01*
X494736Y372930D01*
X497957Y374264D01*
X501443Y374264D01*
X504664Y372930D01*
X507130Y370464D01*
X508464Y367243D01*
X508464Y363757D01*
X507130Y360536D01*
X504664Y358070D01*
X501443Y356736D01*
X497957Y356736D01*
G37*
%LPD*%
%LPC*%
G36*
X472557Y356736D02*
X472557Y356736D01*
X469336Y358070D01*
X466870Y360536D01*
X465536Y363757D01*
X465536Y367243D01*
X466870Y370464D01*
X469336Y372930D01*
X472557Y374264D01*
X476043Y374264D01*
X479264Y372930D01*
X481730Y370464D01*
X483064Y367243D01*
X483064Y363757D01*
X481730Y360536D01*
X479264Y358070D01*
X476043Y356736D01*
X472557Y356736D01*
G37*
%LPD*%
%LPC*%
G36*
X574157Y356736D02*
X574157Y356736D01*
X570936Y358070D01*
X568470Y360536D01*
X567136Y363757D01*
X567136Y367243D01*
X568470Y370464D01*
X570936Y372930D01*
X574157Y374264D01*
X577643Y374264D01*
X580864Y372930D01*
X583330Y370464D01*
X584664Y367243D01*
X584664Y363757D01*
X583330Y360536D01*
X580864Y358070D01*
X577643Y356736D01*
X574157Y356736D01*
G37*
%LPD*%
%LPC*%
G36*
X548757Y356736D02*
X548757Y356736D01*
X545536Y358070D01*
X543070Y360536D01*
X541736Y363757D01*
X541736Y367243D01*
X543070Y370464D01*
X545536Y372930D01*
X548757Y374264D01*
X552243Y374264D01*
X555464Y372930D01*
X557930Y370464D01*
X559264Y367243D01*
X559264Y363757D01*
X557930Y360536D01*
X555464Y358070D01*
X552243Y356736D01*
X548757Y356736D01*
G37*
%LPD*%
%LPC*%
G36*
X523357Y356736D02*
X523357Y356736D01*
X520136Y358070D01*
X517670Y360536D01*
X516336Y363757D01*
X516336Y367243D01*
X517670Y370464D01*
X520136Y372930D01*
X523357Y374264D01*
X526843Y374264D01*
X530064Y372930D01*
X532530Y370464D01*
X533864Y367243D01*
X533864Y363757D01*
X532530Y360536D01*
X530064Y358070D01*
X526843Y356736D01*
X523357Y356736D01*
G37*
%LPD*%
%LPC*%
G36*
X599557Y331336D02*
X599557Y331336D01*
X596336Y332670D01*
X593870Y335136D01*
X592536Y338357D01*
X592536Y341843D01*
X593870Y345064D01*
X596336Y347530D01*
X599557Y348864D01*
X603043Y348864D01*
X606264Y347530D01*
X608730Y345064D01*
X610064Y341843D01*
X610064Y338357D01*
X608730Y335136D01*
X606264Y332670D01*
X603043Y331336D01*
X599557Y331336D01*
G37*
%LPD*%
%LPC*%
G36*
X574157Y331336D02*
X574157Y331336D01*
X570936Y332670D01*
X568470Y335136D01*
X567136Y338357D01*
X567136Y341843D01*
X568470Y345064D01*
X570936Y347530D01*
X574157Y348864D01*
X577643Y348864D01*
X580864Y347530D01*
X583330Y345064D01*
X584664Y341843D01*
X584664Y338357D01*
X583330Y335136D01*
X580864Y332670D01*
X577643Y331336D01*
X574157Y331336D01*
G37*
%LPD*%
%LPC*%
G36*
X904357Y331336D02*
X904357Y331336D01*
X901136Y332670D01*
X898670Y335136D01*
X897336Y338357D01*
X897336Y341843D01*
X898670Y345064D01*
X901136Y347530D01*
X904357Y348864D01*
X907843Y348864D01*
X911064Y347530D01*
X913530Y345064D01*
X914864Y341843D01*
X914864Y338357D01*
X913530Y335136D01*
X911064Y332670D01*
X907843Y331336D01*
X904357Y331336D01*
G37*
%LPD*%
%LPC*%
G36*
X878957Y331336D02*
X878957Y331336D01*
X875736Y332670D01*
X873270Y335136D01*
X871936Y338357D01*
X871936Y341843D01*
X873270Y345064D01*
X875736Y347530D01*
X878957Y348864D01*
X882443Y348864D01*
X885664Y347530D01*
X888130Y345064D01*
X889464Y341843D01*
X889464Y338357D01*
X888130Y335136D01*
X885664Y332670D01*
X882443Y331336D01*
X878957Y331336D01*
G37*
%LPD*%
%LPC*%
G36*
X853557Y331336D02*
X853557Y331336D01*
X850336Y332670D01*
X847870Y335136D01*
X846536Y338357D01*
X846536Y341843D01*
X847870Y345064D01*
X850336Y347530D01*
X853557Y348864D01*
X857043Y348864D01*
X860264Y347530D01*
X862730Y345064D01*
X864064Y341843D01*
X864064Y338357D01*
X862730Y335136D01*
X860264Y332670D01*
X857043Y331336D01*
X853557Y331336D01*
G37*
%LPD*%
%LPC*%
G36*
X828157Y331336D02*
X828157Y331336D01*
X824936Y332670D01*
X822470Y335136D01*
X821136Y338357D01*
X821136Y341843D01*
X822470Y345064D01*
X824936Y347530D01*
X828157Y348864D01*
X831643Y348864D01*
X834864Y347530D01*
X837330Y345064D01*
X838664Y341843D01*
X838664Y338357D01*
X837330Y335136D01*
X834864Y332670D01*
X831643Y331336D01*
X828157Y331336D01*
G37*
%LPD*%
%LPC*%
G36*
X802757Y331336D02*
X802757Y331336D01*
X799536Y332670D01*
X797070Y335136D01*
X795736Y338357D01*
X795736Y341843D01*
X797070Y345064D01*
X799536Y347530D01*
X802757Y348864D01*
X806243Y348864D01*
X809464Y347530D01*
X811930Y345064D01*
X813264Y341843D01*
X813264Y338357D01*
X811930Y335136D01*
X809464Y332670D01*
X806243Y331336D01*
X802757Y331336D01*
G37*
%LPD*%
%LPC*%
G36*
X777357Y331336D02*
X777357Y331336D01*
X774136Y332670D01*
X771670Y335136D01*
X770336Y338357D01*
X770336Y341843D01*
X771670Y345064D01*
X774136Y347530D01*
X777357Y348864D01*
X780843Y348864D01*
X784064Y347530D01*
X786530Y345064D01*
X787864Y341843D01*
X787864Y338357D01*
X786530Y335136D01*
X784064Y332670D01*
X780843Y331336D01*
X777357Y331336D01*
G37*
%LPD*%
%LPC*%
G36*
X751957Y331336D02*
X751957Y331336D01*
X748736Y332670D01*
X746270Y335136D01*
X744936Y338357D01*
X744936Y341843D01*
X746270Y345064D01*
X748736Y347530D01*
X751957Y348864D01*
X755443Y348864D01*
X758664Y347530D01*
X761130Y345064D01*
X762464Y341843D01*
X762464Y338357D01*
X761130Y335136D01*
X758664Y332670D01*
X755443Y331336D01*
X751957Y331336D01*
G37*
%LPD*%
%LPC*%
G36*
X701157Y331336D02*
X701157Y331336D01*
X697936Y332670D01*
X695470Y335136D01*
X694136Y338357D01*
X694136Y341843D01*
X695470Y345064D01*
X697936Y347530D01*
X701157Y348864D01*
X704643Y348864D01*
X707864Y347530D01*
X710330Y345064D01*
X711664Y341843D01*
X711664Y338357D01*
X710330Y335136D01*
X707864Y332670D01*
X704643Y331336D01*
X701157Y331336D01*
G37*
%LPD*%
%LPC*%
G36*
X675757Y331336D02*
X675757Y331336D01*
X672536Y332670D01*
X670070Y335136D01*
X668736Y338357D01*
X668736Y341843D01*
X670070Y345064D01*
X672536Y347530D01*
X675757Y348864D01*
X679243Y348864D01*
X682464Y347530D01*
X684930Y345064D01*
X686264Y341843D01*
X686264Y338357D01*
X684930Y335136D01*
X682464Y332670D01*
X679243Y331336D01*
X675757Y331336D01*
G37*
%LPD*%
%LPC*%
G36*
X624957Y331336D02*
X624957Y331336D01*
X621736Y332670D01*
X619270Y335136D01*
X617936Y338357D01*
X617936Y341843D01*
X619270Y345064D01*
X621736Y347530D01*
X624957Y348864D01*
X628443Y348864D01*
X631664Y347530D01*
X634130Y345064D01*
X635464Y341843D01*
X635464Y338357D01*
X634130Y335136D01*
X631664Y332670D01*
X628443Y331336D01*
X624957Y331336D01*
G37*
%LPD*%
%LPC*%
G36*
X548757Y331336D02*
X548757Y331336D01*
X545536Y332670D01*
X543070Y335136D01*
X541736Y338357D01*
X541736Y341843D01*
X543070Y345064D01*
X545536Y347530D01*
X548757Y348864D01*
X552243Y348864D01*
X555464Y347530D01*
X557930Y345064D01*
X559264Y341843D01*
X559264Y338357D01*
X557930Y335136D01*
X555464Y332670D01*
X552243Y331336D01*
X548757Y331336D01*
G37*
%LPD*%
%LPC*%
G36*
X523357Y331336D02*
X523357Y331336D01*
X520136Y332670D01*
X517670Y335136D01*
X516336Y338357D01*
X516336Y341843D01*
X517670Y345064D01*
X520136Y347530D01*
X523357Y348864D01*
X526843Y348864D01*
X530064Y347530D01*
X532530Y345064D01*
X533864Y341843D01*
X533864Y338357D01*
X532530Y335136D01*
X530064Y332670D01*
X526843Y331336D01*
X523357Y331336D01*
G37*
%LPD*%
%LPC*%
G36*
X497957Y331336D02*
X497957Y331336D01*
X494736Y332670D01*
X492270Y335136D01*
X490936Y338357D01*
X490936Y341843D01*
X492270Y345064D01*
X494736Y347530D01*
X497957Y348864D01*
X501443Y348864D01*
X504664Y347530D01*
X507130Y345064D01*
X508464Y341843D01*
X508464Y338357D01*
X507130Y335136D01*
X504664Y332670D01*
X501443Y331336D01*
X497957Y331336D01*
G37*
%LPD*%
%LPC*%
G36*
X472557Y331336D02*
X472557Y331336D01*
X469336Y332670D01*
X466870Y335136D01*
X465536Y338357D01*
X465536Y341843D01*
X466870Y345064D01*
X469336Y347530D01*
X472557Y348864D01*
X476043Y348864D01*
X479264Y347530D01*
X481730Y345064D01*
X483064Y341843D01*
X483064Y338357D01*
X481730Y335136D01*
X479264Y332670D01*
X476043Y331336D01*
X472557Y331336D01*
G37*
%LPD*%
%LPC*%
G36*
X904357Y77336D02*
X904357Y77336D01*
X901136Y78670D01*
X898670Y81136D01*
X897336Y84357D01*
X897336Y87843D01*
X898670Y91064D01*
X901136Y93530D01*
X904357Y94864D01*
X907843Y94864D01*
X911064Y93530D01*
X913530Y91064D01*
X914864Y87843D01*
X914864Y84357D01*
X913530Y81136D01*
X911064Y78670D01*
X907843Y77336D01*
X904357Y77336D01*
G37*
%LPD*%
%LPC*%
G36*
X472557Y102736D02*
X472557Y102736D01*
X469336Y104070D01*
X466870Y106536D01*
X465536Y109757D01*
X465536Y113243D01*
X466870Y116464D01*
X469336Y118930D01*
X472557Y120264D01*
X476043Y120264D01*
X479264Y118930D01*
X481730Y116464D01*
X483064Y113243D01*
X483064Y109757D01*
X481730Y106536D01*
X479264Y104070D01*
X476043Y102736D01*
X472557Y102736D01*
G37*
%LPD*%
%LPC*%
G36*
X497957Y102736D02*
X497957Y102736D01*
X494736Y104070D01*
X492270Y106536D01*
X490936Y109757D01*
X490936Y113243D01*
X492270Y116464D01*
X494736Y118930D01*
X497957Y120264D01*
X501443Y120264D01*
X504664Y118930D01*
X507130Y116464D01*
X508464Y113243D01*
X508464Y109757D01*
X507130Y106536D01*
X504664Y104070D01*
X501443Y102736D01*
X497957Y102736D01*
G37*
%LPD*%
%LPC*%
G36*
X523357Y102736D02*
X523357Y102736D01*
X520136Y104070D01*
X517670Y106536D01*
X516336Y109757D01*
X516336Y113243D01*
X517670Y116464D01*
X520136Y118930D01*
X523357Y120264D01*
X526843Y120264D01*
X530064Y118930D01*
X532530Y116464D01*
X533864Y113243D01*
X533864Y109757D01*
X532530Y106536D01*
X530064Y104070D01*
X526843Y102736D01*
X523357Y102736D01*
G37*
%LPD*%
%LPC*%
G36*
X548757Y102736D02*
X548757Y102736D01*
X545536Y104070D01*
X543070Y106536D01*
X541736Y109757D01*
X541736Y113243D01*
X543070Y116464D01*
X545536Y118930D01*
X548757Y120264D01*
X552243Y120264D01*
X555464Y118930D01*
X557930Y116464D01*
X559264Y113243D01*
X559264Y109757D01*
X557930Y106536D01*
X555464Y104070D01*
X552243Y102736D01*
X548757Y102736D01*
G37*
%LPD*%
%LPC*%
G36*
X574157Y102736D02*
X574157Y102736D01*
X570936Y104070D01*
X568470Y106536D01*
X567136Y109757D01*
X567136Y113243D01*
X568470Y116464D01*
X570936Y118930D01*
X574157Y120264D01*
X577643Y120264D01*
X580864Y118930D01*
X583330Y116464D01*
X584664Y113243D01*
X584664Y109757D01*
X583330Y106536D01*
X580864Y104070D01*
X577643Y102736D01*
X574157Y102736D01*
G37*
%LPD*%
%LPC*%
G36*
X599557Y102736D02*
X599557Y102736D01*
X596336Y104070D01*
X593870Y106536D01*
X592536Y109757D01*
X592536Y113243D01*
X593870Y116464D01*
X596336Y118930D01*
X599557Y120264D01*
X603043Y120264D01*
X606264Y118930D01*
X608730Y116464D01*
X610064Y113243D01*
X610064Y109757D01*
X608730Y106536D01*
X606264Y104070D01*
X603043Y102736D01*
X599557Y102736D01*
G37*
%LPD*%
%LPC*%
G36*
X624957Y102736D02*
X624957Y102736D01*
X621736Y104070D01*
X619270Y106536D01*
X617936Y109757D01*
X617936Y113243D01*
X619270Y116464D01*
X621736Y118930D01*
X624957Y120264D01*
X628443Y120264D01*
X631664Y118930D01*
X634130Y116464D01*
X635464Y113243D01*
X635464Y109757D01*
X634130Y106536D01*
X631664Y104070D01*
X628443Y102736D01*
X624957Y102736D01*
G37*
%LPD*%
%LPC*%
G36*
X878957Y77336D02*
X878957Y77336D01*
X875736Y78670D01*
X873270Y81136D01*
X871936Y84357D01*
X871936Y87843D01*
X873270Y91064D01*
X875736Y93530D01*
X878957Y94864D01*
X882443Y94864D01*
X885664Y93530D01*
X888130Y91064D01*
X889464Y87843D01*
X889464Y84357D01*
X888130Y81136D01*
X885664Y78670D01*
X882443Y77336D01*
X878957Y77336D01*
G37*
%LPD*%
%LPC*%
G36*
X853557Y77336D02*
X853557Y77336D01*
X850336Y78670D01*
X847870Y81136D01*
X846536Y84357D01*
X846536Y87843D01*
X847870Y91064D01*
X850336Y93530D01*
X853557Y94864D01*
X857043Y94864D01*
X860264Y93530D01*
X862730Y91064D01*
X864064Y87843D01*
X864064Y84357D01*
X862730Y81136D01*
X860264Y78670D01*
X857043Y77336D01*
X853557Y77336D01*
G37*
%LPD*%
%LPC*%
G36*
X828157Y77336D02*
X828157Y77336D01*
X824936Y78670D01*
X822470Y81136D01*
X821136Y84357D01*
X821136Y87843D01*
X822470Y91064D01*
X824936Y93530D01*
X828157Y94864D01*
X831643Y94864D01*
X834864Y93530D01*
X837330Y91064D01*
X838664Y87843D01*
X838664Y84357D01*
X837330Y81136D01*
X834864Y78670D01*
X831643Y77336D01*
X828157Y77336D01*
G37*
%LPD*%
%LPC*%
G36*
X802757Y77336D02*
X802757Y77336D01*
X799536Y78670D01*
X797070Y81136D01*
X795736Y84357D01*
X795736Y87843D01*
X797070Y91064D01*
X799536Y93530D01*
X802757Y94864D01*
X806243Y94864D01*
X809464Y93530D01*
X811930Y91064D01*
X813264Y87843D01*
X813264Y84357D01*
X811930Y81136D01*
X809464Y78670D01*
X806243Y77336D01*
X802757Y77336D01*
G37*
%LPD*%
%LPC*%
G36*
X188757Y130936D02*
X188757Y130936D01*
X185536Y132270D01*
X183070Y134736D01*
X181736Y137957D01*
X181736Y141443D01*
X183070Y144664D01*
X185536Y147130D01*
X188757Y148464D01*
X192243Y148464D01*
X195464Y147130D01*
X197930Y144664D01*
X199264Y141443D01*
X199264Y137957D01*
X197930Y134736D01*
X195464Y132270D01*
X192243Y130936D01*
X188757Y130936D01*
G37*
%LPD*%
%LPC*%
G36*
X777357Y77336D02*
X777357Y77336D01*
X774136Y78670D01*
X771670Y81136D01*
X770336Y84357D01*
X770336Y87843D01*
X771670Y91064D01*
X774136Y93530D01*
X777357Y94864D01*
X780843Y94864D01*
X784064Y93530D01*
X786530Y91064D01*
X787864Y87843D01*
X787864Y84357D01*
X786530Y81136D01*
X784064Y78670D01*
X780843Y77336D01*
X777357Y77336D01*
G37*
%LPD*%
%LPC*%
G36*
X480857Y423036D02*
X480857Y423036D01*
X477636Y424370D01*
X475170Y426836D01*
X473836Y430057D01*
X473836Y433543D01*
X475170Y436764D01*
X477636Y439230D01*
X480857Y440564D01*
X484343Y440564D01*
X487564Y439230D01*
X490030Y436764D01*
X491364Y433543D01*
X491364Y430057D01*
X490030Y426836D01*
X487564Y424370D01*
X484343Y423036D01*
X480857Y423036D01*
G37*
%LPD*%
%LPC*%
G36*
X675757Y102736D02*
X675757Y102736D01*
X672536Y104070D01*
X670070Y106536D01*
X668736Y109757D01*
X668736Y113243D01*
X670070Y116464D01*
X672536Y118930D01*
X675757Y120264D01*
X679243Y120264D01*
X682464Y118930D01*
X684930Y116464D01*
X686264Y113243D01*
X686264Y109757D01*
X684930Y106536D01*
X682464Y104070D01*
X679243Y102736D01*
X675757Y102736D01*
G37*
%LPD*%
%LPC*%
G36*
X701157Y102736D02*
X701157Y102736D01*
X697936Y104070D01*
X695470Y106536D01*
X694136Y109757D01*
X694136Y113243D01*
X695470Y116464D01*
X697936Y118930D01*
X701157Y120264D01*
X704643Y120264D01*
X707864Y118930D01*
X710330Y116464D01*
X711664Y113243D01*
X711664Y109757D01*
X710330Y106536D01*
X707864Y104070D01*
X704643Y102736D01*
X701157Y102736D01*
G37*
%LPD*%
%LPC*%
G36*
X751957Y102736D02*
X751957Y102736D01*
X748736Y104070D01*
X746270Y106536D01*
X744936Y109757D01*
X744936Y113243D01*
X746270Y116464D01*
X748736Y118930D01*
X751957Y120264D01*
X755443Y120264D01*
X758664Y118930D01*
X761130Y116464D01*
X762464Y113243D01*
X762464Y109757D01*
X761130Y106536D01*
X758664Y104070D01*
X755443Y102736D01*
X751957Y102736D01*
G37*
%LPD*%
%LPC*%
G36*
X701157Y77336D02*
X701157Y77336D01*
X697936Y78670D01*
X695470Y81136D01*
X694136Y84357D01*
X694136Y87843D01*
X695470Y91064D01*
X697936Y93530D01*
X701157Y94864D01*
X704643Y94864D01*
X707864Y93530D01*
X710330Y91064D01*
X711664Y87843D01*
X711664Y84357D01*
X710330Y81136D01*
X707864Y78670D01*
X704643Y77336D01*
X701157Y77336D01*
G37*
%LPD*%
%LPC*%
G36*
X675757Y77336D02*
X675757Y77336D01*
X672536Y78670D01*
X670070Y81136D01*
X668736Y84357D01*
X668736Y87843D01*
X670070Y91064D01*
X672536Y93530D01*
X675757Y94864D01*
X679243Y94864D01*
X682464Y93530D01*
X684930Y91064D01*
X686264Y87843D01*
X686264Y84357D01*
X684930Y81136D01*
X682464Y78670D01*
X679243Y77336D01*
X675757Y77336D01*
G37*
%LPD*%
%LPC*%
G36*
X188757Y245236D02*
X188757Y245236D01*
X185536Y246570D01*
X183070Y249036D01*
X181736Y252257D01*
X181736Y255743D01*
X183070Y258964D01*
X185536Y261430D01*
X188757Y262764D01*
X192243Y262764D01*
X195464Y261430D01*
X197930Y258964D01*
X199264Y255743D01*
X199264Y252257D01*
X197930Y249036D01*
X195464Y246570D01*
X192243Y245236D01*
X188757Y245236D01*
G37*
%LPD*%
%LPC*%
G36*
X455457Y423036D02*
X455457Y423036D01*
X452236Y424370D01*
X449770Y426836D01*
X448436Y430057D01*
X448436Y433543D01*
X449770Y436764D01*
X452236Y439230D01*
X455457Y440564D01*
X458943Y440564D01*
X462164Y439230D01*
X464630Y436764D01*
X465964Y433543D01*
X465964Y430057D01*
X464630Y426836D01*
X462164Y424370D01*
X458943Y423036D01*
X455457Y423036D01*
G37*
%LPD*%
%LPC*%
G36*
X379257Y423036D02*
X379257Y423036D01*
X376036Y424370D01*
X373570Y426836D01*
X372236Y430057D01*
X372236Y433543D01*
X373570Y436764D01*
X376036Y439230D01*
X379257Y440564D01*
X382743Y440564D01*
X385964Y439230D01*
X388430Y436764D01*
X389764Y433543D01*
X389764Y430057D01*
X388430Y426836D01*
X385964Y424370D01*
X382743Y423036D01*
X379257Y423036D01*
G37*
%LPD*%
%LPC*%
G36*
X650357Y77336D02*
X650357Y77336D01*
X647136Y78670D01*
X644670Y81136D01*
X643336Y84357D01*
X643336Y87843D01*
X644670Y91064D01*
X647136Y93530D01*
X650357Y94864D01*
X653843Y94864D01*
X657064Y93530D01*
X659530Y91064D01*
X660864Y87843D01*
X660864Y84357D01*
X659530Y81136D01*
X657064Y78670D01*
X653843Y77336D01*
X650357Y77336D01*
G37*
%LPD*%
%LPC*%
G36*
X188757Y156336D02*
X188757Y156336D01*
X185536Y157670D01*
X183070Y160136D01*
X181736Y163357D01*
X181736Y166843D01*
X183070Y170064D01*
X185536Y172530D01*
X188757Y173864D01*
X192243Y173864D01*
X195464Y172530D01*
X197930Y170064D01*
X199264Y166843D01*
X199264Y163357D01*
X197930Y160136D01*
X195464Y157670D01*
X192243Y156336D01*
X188757Y156336D01*
G37*
%LPD*%
%LPC*%
G36*
X777357Y102736D02*
X777357Y102736D01*
X774136Y104070D01*
X771670Y106536D01*
X770336Y109757D01*
X770336Y113243D01*
X771670Y116464D01*
X774136Y118930D01*
X777357Y120264D01*
X780843Y120264D01*
X784064Y118930D01*
X786530Y116464D01*
X787864Y113243D01*
X787864Y109757D01*
X786530Y106536D01*
X784064Y104070D01*
X780843Y102736D01*
X777357Y102736D01*
G37*
%LPD*%
%LPC*%
G36*
X188757Y219836D02*
X188757Y219836D01*
X185536Y221170D01*
X183070Y223636D01*
X181736Y226857D01*
X181736Y230343D01*
X183070Y233564D01*
X185536Y236030D01*
X188757Y237364D01*
X192243Y237364D01*
X195464Y236030D01*
X197930Y233564D01*
X199264Y230343D01*
X199264Y226857D01*
X197930Y223636D01*
X195464Y221170D01*
X192243Y219836D01*
X188757Y219836D01*
G37*
%LPD*%
%LPC*%
G36*
X802757Y102736D02*
X802757Y102736D01*
X799536Y104070D01*
X797070Y106536D01*
X795736Y109757D01*
X795736Y113243D01*
X797070Y116464D01*
X799536Y118930D01*
X802757Y120264D01*
X806243Y120264D01*
X809464Y118930D01*
X811930Y116464D01*
X813264Y113243D01*
X813264Y109757D01*
X811930Y106536D01*
X809464Y104070D01*
X806243Y102736D01*
X802757Y102736D01*
G37*
%LPD*%
%LPC*%
G36*
X828157Y102736D02*
X828157Y102736D01*
X824936Y104070D01*
X822470Y106536D01*
X821136Y109757D01*
X821136Y113243D01*
X822470Y116464D01*
X824936Y118930D01*
X828157Y120264D01*
X831643Y120264D01*
X834864Y118930D01*
X837330Y116464D01*
X838664Y113243D01*
X838664Y109757D01*
X837330Y106536D01*
X834864Y104070D01*
X831643Y102736D01*
X828157Y102736D01*
G37*
%LPD*%
%LPC*%
G36*
X624957Y77336D02*
X624957Y77336D01*
X621736Y78670D01*
X619270Y81136D01*
X617936Y84357D01*
X617936Y87843D01*
X619270Y91064D01*
X621736Y93530D01*
X624957Y94864D01*
X628443Y94864D01*
X631664Y93530D01*
X634130Y91064D01*
X635464Y87843D01*
X635464Y84357D01*
X634130Y81136D01*
X631664Y78670D01*
X628443Y77336D01*
X624957Y77336D01*
G37*
%LPD*%
%LPC*%
G36*
X904357Y102736D02*
X904357Y102736D01*
X901136Y104070D01*
X898670Y106536D01*
X897336Y109757D01*
X897336Y113243D01*
X898670Y116464D01*
X901136Y118930D01*
X904357Y120264D01*
X907843Y120264D01*
X911064Y118930D01*
X913530Y116464D01*
X914864Y113243D01*
X914864Y109757D01*
X913530Y106536D01*
X911064Y104070D01*
X907843Y102736D01*
X904357Y102736D01*
G37*
%LPD*%
%LPC*%
G36*
X599557Y77336D02*
X599557Y77336D01*
X596336Y78670D01*
X593870Y81136D01*
X592536Y84357D01*
X592536Y87843D01*
X593870Y91064D01*
X596336Y93530D01*
X599557Y94864D01*
X603043Y94864D01*
X606264Y93530D01*
X608730Y91064D01*
X610064Y87843D01*
X610064Y84357D01*
X608730Y81136D01*
X606264Y78670D01*
X603043Y77336D01*
X599557Y77336D01*
G37*
%LPD*%
%LPC*%
G36*
X574157Y77336D02*
X574157Y77336D01*
X570936Y78670D01*
X568470Y81136D01*
X567136Y84357D01*
X567136Y87843D01*
X568470Y91064D01*
X570936Y93530D01*
X574157Y94864D01*
X577643Y94864D01*
X580864Y93530D01*
X583330Y91064D01*
X584664Y87843D01*
X584664Y84357D01*
X583330Y81136D01*
X580864Y78670D01*
X577643Y77336D01*
X574157Y77336D01*
G37*
%LPD*%
%LPC*%
G36*
X548757Y77336D02*
X548757Y77336D01*
X545536Y78670D01*
X543070Y81136D01*
X541736Y84357D01*
X541736Y87843D01*
X543070Y91064D01*
X545536Y93530D01*
X548757Y94864D01*
X552243Y94864D01*
X555464Y93530D01*
X557930Y91064D01*
X559264Y87843D01*
X559264Y84357D01*
X557930Y81136D01*
X555464Y78670D01*
X552243Y77336D01*
X548757Y77336D01*
G37*
%LPD*%
%LPC*%
G36*
X523357Y77336D02*
X523357Y77336D01*
X520136Y78670D01*
X517670Y81136D01*
X516336Y84357D01*
X516336Y87843D01*
X517670Y91064D01*
X520136Y93530D01*
X523357Y94864D01*
X526843Y94864D01*
X530064Y93530D01*
X532530Y91064D01*
X533864Y87843D01*
X533864Y84357D01*
X532530Y81136D01*
X530064Y78670D01*
X526843Y77336D01*
X523357Y77336D01*
G37*
%LPD*%
%LPC*%
G36*
X853557Y102736D02*
X853557Y102736D01*
X850336Y104070D01*
X847870Y106536D01*
X846536Y109757D01*
X846536Y113243D01*
X847870Y116464D01*
X850336Y118930D01*
X853557Y120264D01*
X857043Y120264D01*
X860264Y118930D01*
X862730Y116464D01*
X864064Y113243D01*
X864064Y109757D01*
X862730Y106536D01*
X860264Y104070D01*
X857043Y102736D01*
X853557Y102736D01*
G37*
%LPD*%
%LPC*%
G36*
X878957Y102736D02*
X878957Y102736D01*
X875736Y104070D01*
X873270Y106536D01*
X871936Y109757D01*
X871936Y113243D01*
X873270Y116464D01*
X875736Y118930D01*
X878957Y120264D01*
X882443Y120264D01*
X885664Y118930D01*
X888130Y116464D01*
X889464Y113243D01*
X889464Y109757D01*
X888130Y106536D01*
X885664Y104070D01*
X882443Y102736D01*
X878957Y102736D01*
G37*
%LPD*%
%LPC*%
G36*
X497957Y77336D02*
X497957Y77336D01*
X494736Y78670D01*
X492270Y81136D01*
X490936Y84357D01*
X490936Y87843D01*
X492270Y91064D01*
X494736Y93530D01*
X497957Y94864D01*
X501443Y94864D01*
X504664Y93530D01*
X507130Y91064D01*
X508464Y87843D01*
X508464Y84357D01*
X507130Y81136D01*
X504664Y78670D01*
X501443Y77336D01*
X497957Y77336D01*
G37*
%LPD*%
%LPC*%
G36*
X472557Y77336D02*
X472557Y77336D01*
X469336Y78670D01*
X466870Y81136D01*
X465536Y84357D01*
X465536Y87843D01*
X466870Y91064D01*
X469336Y93530D01*
X472557Y94864D01*
X476043Y94864D01*
X479264Y93530D01*
X481730Y91064D01*
X483064Y87843D01*
X483064Y84357D01*
X481730Y81136D01*
X479264Y78670D01*
X476043Y77336D01*
X472557Y77336D01*
G37*
%LPD*%
%LPC*%
G36*
X277657Y423036D02*
X277657Y423036D01*
X274436Y424370D01*
X271970Y426836D01*
X270636Y430057D01*
X270636Y433543D01*
X271970Y436764D01*
X274436Y439230D01*
X277657Y440564D01*
X281143Y440564D01*
X284364Y439230D01*
X286830Y436764D01*
X288164Y433543D01*
X288164Y430057D01*
X286830Y426836D01*
X284364Y424370D01*
X281143Y423036D01*
X277657Y423036D01*
G37*
%LPD*%
%LPC*%
G36*
X353857Y423036D02*
X353857Y423036D01*
X350636Y424370D01*
X348170Y426836D01*
X346836Y430057D01*
X346836Y433543D01*
X348170Y436764D01*
X350636Y439230D01*
X353857Y440564D01*
X357343Y440564D01*
X360564Y439230D01*
X363030Y436764D01*
X364364Y433543D01*
X364364Y430057D01*
X363030Y426836D01*
X360564Y424370D01*
X357343Y423036D01*
X353857Y423036D01*
G37*
%LPD*%
%LPC*%
G36*
X493681Y146684D02*
X493681Y146684D01*
X490689Y147924D01*
X488399Y150214D01*
X487159Y153206D01*
X487159Y156444D01*
X488399Y159436D01*
X490689Y161726D01*
X493681Y162966D01*
X496919Y162966D01*
X499911Y161726D01*
X502201Y159436D01*
X503441Y156444D01*
X503441Y153206D01*
X502201Y150214D01*
X499911Y147924D01*
X496919Y146684D01*
X493681Y146684D01*
G37*
%LPD*%
%LPC*%
G36*
X843393Y298985D02*
X843393Y298985D01*
X841256Y299870D01*
X839620Y301506D01*
X838735Y303643D01*
X838735Y305957D01*
X839620Y308094D01*
X841256Y309730D01*
X843393Y310615D01*
X845707Y310615D01*
X847844Y309730D01*
X849480Y308094D01*
X850365Y305957D01*
X850365Y303643D01*
X849480Y301506D01*
X847844Y299870D01*
X845707Y298985D01*
X843393Y298985D01*
G37*
%LPD*%
%LPC*%
G36*
X925988Y229361D02*
X925988Y229361D01*
X923934Y230212D01*
X922362Y231784D01*
X921511Y233838D01*
X921511Y236062D01*
X922362Y238116D01*
X923934Y239688D01*
X925988Y240539D01*
X928212Y240539D01*
X930266Y239688D01*
X931838Y238116D01*
X932689Y236062D01*
X932689Y233838D01*
X931838Y231784D01*
X930266Y230212D01*
X928212Y229361D01*
X925988Y229361D01*
G37*
%LPD*%
%LPC*%
G36*
X748188Y229361D02*
X748188Y229361D01*
X746134Y230212D01*
X744562Y231784D01*
X743711Y233838D01*
X743711Y236062D01*
X744562Y238116D01*
X746134Y239688D01*
X748188Y240539D01*
X750412Y240539D01*
X752466Y239688D01*
X754038Y238116D01*
X754889Y236062D01*
X754889Y233838D01*
X754038Y231784D01*
X752466Y230212D01*
X750412Y229361D01*
X748188Y229361D01*
G37*
%LPD*%
%LPC*%
G36*
X600439Y161689D02*
X600439Y161689D01*
X600439Y171242D01*
X600790Y171187D01*
X602637Y170587D01*
X604368Y169705D01*
X605939Y168563D01*
X607313Y167189D01*
X608455Y165618D01*
X609337Y163887D01*
X609937Y162040D01*
X609992Y161689D01*
X600439Y161689D01*
G37*
%LPD*%
%LPC*%
G36*
X778239Y161689D02*
X778239Y161689D01*
X778239Y171242D01*
X778590Y171187D01*
X780437Y170587D01*
X782168Y169705D01*
X783739Y168563D01*
X785113Y167189D01*
X786255Y165618D01*
X787137Y163887D01*
X787737Y162040D01*
X787792Y161689D01*
X778239Y161689D01*
G37*
%LPD*%
%LPC*%
G36*
X903239Y161689D02*
X903239Y161689D01*
X903239Y171242D01*
X903590Y171187D01*
X905437Y170587D01*
X907168Y169705D01*
X908739Y168563D01*
X910113Y167189D01*
X911255Y165618D01*
X912137Y163887D01*
X912737Y162040D01*
X912792Y161689D01*
X903239Y161689D01*
G37*
%LPD*%
%LPC*%
G36*
X725439Y161689D02*
X725439Y161689D01*
X725439Y171242D01*
X725790Y171187D01*
X727637Y170587D01*
X729368Y169705D01*
X730939Y168563D01*
X732313Y167189D01*
X733455Y165618D01*
X734337Y163887D01*
X734937Y162040D01*
X734992Y161689D01*
X725439Y161689D01*
G37*
%LPD*%
%LPC*%
G36*
X888608Y161689D02*
X888608Y161689D01*
X888663Y162040D01*
X889263Y163887D01*
X890145Y165618D01*
X891287Y167189D01*
X892661Y168563D01*
X894232Y169705D01*
X895963Y170587D01*
X897810Y171187D01*
X898161Y171242D01*
X898161Y161689D01*
X888608Y161689D01*
G37*
%LPD*%
%LPC*%
G36*
X585808Y161689D02*
X585808Y161689D01*
X585863Y162040D01*
X586463Y163887D01*
X587345Y165618D01*
X588487Y167189D01*
X589861Y168563D01*
X591432Y169705D01*
X593163Y170587D01*
X595010Y171187D01*
X595361Y171242D01*
X595361Y161689D01*
X585808Y161689D01*
G37*
%LPD*%
%LPC*%
G36*
X778239Y156611D02*
X778239Y156611D01*
X787792Y156611D01*
X787737Y156260D01*
X787137Y154413D01*
X786255Y152682D01*
X785113Y151111D01*
X783739Y149737D01*
X782168Y148595D01*
X780437Y147713D01*
X778590Y147113D01*
X778239Y147058D01*
X778239Y156611D01*
G37*
%LPD*%
%LPC*%
G36*
X725439Y156611D02*
X725439Y156611D01*
X734992Y156611D01*
X734937Y156260D01*
X734337Y154413D01*
X733455Y152682D01*
X732313Y151111D01*
X730939Y149737D01*
X729368Y148595D01*
X727637Y147713D01*
X725790Y147113D01*
X725439Y147058D01*
X725439Y156611D01*
G37*
%LPD*%
%LPC*%
G36*
X763608Y161689D02*
X763608Y161689D01*
X763663Y162040D01*
X764263Y163887D01*
X765145Y165618D01*
X766287Y167189D01*
X767661Y168563D01*
X769232Y169705D01*
X770963Y170587D01*
X772810Y171187D01*
X773161Y171242D01*
X773161Y161689D01*
X763608Y161689D01*
G37*
%LPD*%
%LPC*%
G36*
X903239Y156611D02*
X903239Y156611D01*
X912792Y156611D01*
X912737Y156260D01*
X912137Y154413D01*
X911255Y152682D01*
X910113Y151111D01*
X908739Y149737D01*
X907168Y148595D01*
X905437Y147713D01*
X903590Y147113D01*
X903239Y147058D01*
X903239Y156611D01*
G37*
%LPD*%
%LPC*%
G36*
X710808Y161689D02*
X710808Y161689D01*
X710863Y162040D01*
X711463Y163887D01*
X712345Y165618D01*
X713487Y167189D01*
X714861Y168563D01*
X716432Y169705D01*
X718163Y170587D01*
X720010Y171187D01*
X720361Y171242D01*
X720361Y161689D01*
X710808Y161689D01*
G37*
%LPD*%
%LPC*%
G36*
X600439Y156611D02*
X600439Y156611D01*
X609992Y156611D01*
X609937Y156260D01*
X609337Y154413D01*
X608455Y152682D01*
X607313Y151111D01*
X605939Y149737D01*
X604368Y148595D01*
X602637Y147713D01*
X600790Y147113D01*
X600439Y147058D01*
X600439Y156611D01*
G37*
%LPD*%
%LPC*%
G36*
X595010Y147113D02*
X595010Y147113D01*
X593163Y147713D01*
X591432Y148595D01*
X589861Y149737D01*
X588487Y151111D01*
X587345Y152682D01*
X586463Y154413D01*
X585863Y156260D01*
X585808Y156611D01*
X595361Y156611D01*
X595361Y147058D01*
X595010Y147113D01*
G37*
%LPD*%
%LPC*%
G36*
X772810Y147113D02*
X772810Y147113D01*
X770963Y147713D01*
X769232Y148595D01*
X767661Y149737D01*
X766287Y151111D01*
X765145Y152682D01*
X764263Y154413D01*
X763663Y156260D01*
X763608Y156611D01*
X773161Y156611D01*
X773161Y147058D01*
X772810Y147113D01*
G37*
%LPD*%
%LPC*%
G36*
X897810Y147113D02*
X897810Y147113D01*
X895963Y147713D01*
X894232Y148595D01*
X892661Y149737D01*
X891287Y151111D01*
X890145Y152682D01*
X889263Y154413D01*
X888663Y156260D01*
X888608Y156611D01*
X898161Y156611D01*
X898161Y147058D01*
X897810Y147113D01*
G37*
%LPD*%
%LPC*%
G36*
X720010Y147113D02*
X720010Y147113D01*
X718163Y147713D01*
X716432Y148595D01*
X714861Y149737D01*
X713487Y151111D01*
X712345Y152682D01*
X711463Y154413D01*
X710863Y156260D01*
X710808Y156611D01*
X720361Y156611D01*
X720361Y147058D01*
X720010Y147113D01*
G37*
%LPD*%
%LPC*%
G36*
X389849Y281899D02*
X389849Y281899D01*
X389849Y288620D01*
X391012Y288242D01*
X392351Y287560D01*
X393565Y286677D01*
X394627Y285615D01*
X395510Y284401D01*
X396192Y283062D01*
X396570Y281899D01*
X389849Y281899D01*
G37*
%LPD*%
%LPC*%
G36*
X389849Y231099D02*
X389849Y231099D01*
X389849Y237820D01*
X391012Y237442D01*
X392351Y236760D01*
X393565Y235877D01*
X394627Y234815D01*
X395510Y233601D01*
X396192Y232262D01*
X396570Y231099D01*
X389849Y231099D01*
G37*
%LPD*%
%LPC*%
G36*
X389849Y154899D02*
X389849Y154899D01*
X389849Y161620D01*
X391012Y161242D01*
X392351Y160560D01*
X393565Y159677D01*
X394627Y158615D01*
X395510Y157401D01*
X396192Y156062D01*
X396570Y154899D01*
X389849Y154899D01*
G37*
%LPD*%
%LPC*%
G36*
X389849Y226101D02*
X389849Y226101D01*
X396570Y226101D01*
X396192Y224938D01*
X395510Y223599D01*
X394627Y222385D01*
X393565Y221323D01*
X392351Y220440D01*
X391012Y219758D01*
X389849Y219380D01*
X389849Y226101D01*
G37*
%LPD*%
%LPC*%
G36*
X389849Y276901D02*
X389849Y276901D01*
X396570Y276901D01*
X396192Y275738D01*
X395510Y274399D01*
X394627Y273185D01*
X393565Y272123D01*
X392351Y271240D01*
X391012Y270558D01*
X389849Y270180D01*
X389849Y276901D01*
G37*
%LPD*%
%LPC*%
G36*
X389849Y149901D02*
X389849Y149901D01*
X396570Y149901D01*
X396192Y148738D01*
X395510Y147399D01*
X394627Y146185D01*
X393565Y145123D01*
X392351Y144240D01*
X391012Y143558D01*
X389849Y143180D01*
X389849Y149901D01*
G37*
%LPD*%
%LPC*%
G36*
X378130Y231099D02*
X378130Y231099D01*
X378508Y232262D01*
X379190Y233601D01*
X380073Y234815D01*
X381135Y235877D01*
X382349Y236760D01*
X383688Y237442D01*
X384851Y237820D01*
X384851Y231099D01*
X378130Y231099D01*
G37*
%LPD*%
%LPC*%
G36*
X378130Y281899D02*
X378130Y281899D01*
X378508Y283062D01*
X379190Y284401D01*
X380073Y285615D01*
X381135Y286677D01*
X382349Y287560D01*
X383688Y288242D01*
X384851Y288620D01*
X384851Y281899D01*
X378130Y281899D01*
G37*
%LPD*%
%LPC*%
G36*
X378130Y154899D02*
X378130Y154899D01*
X378508Y156062D01*
X379190Y157401D01*
X380073Y158615D01*
X381135Y159677D01*
X382349Y160560D01*
X383688Y161242D01*
X384851Y161620D01*
X384851Y154899D01*
X378130Y154899D01*
G37*
%LPD*%
%LPC*%
G36*
X383688Y219758D02*
X383688Y219758D01*
X382349Y220440D01*
X381135Y221323D01*
X380073Y222385D01*
X379190Y223599D01*
X378508Y224938D01*
X378130Y226101D01*
X384851Y226101D01*
X384851Y219380D01*
X383688Y219758D01*
G37*
%LPD*%
%LPC*%
G36*
X383688Y270558D02*
X383688Y270558D01*
X382349Y271240D01*
X381135Y272123D01*
X380073Y273185D01*
X379190Y274399D01*
X378508Y275738D01*
X378130Y276901D01*
X384851Y276901D01*
X384851Y270180D01*
X383688Y270558D01*
G37*
%LPD*%
%LPC*%
G36*
X383688Y143558D02*
X383688Y143558D01*
X382349Y144240D01*
X381135Y145123D01*
X380073Y146185D01*
X379190Y147399D01*
X378508Y148738D01*
X378130Y149901D01*
X384851Y149901D01*
X384851Y143180D01*
X383688Y143558D01*
G37*
%LPD*%
%LPC*%
G36*
X681599Y395999D02*
X681599Y395999D01*
X681599Y402399D01*
X681920Y402336D01*
X683554Y401659D01*
X685025Y400676D01*
X686276Y399425D01*
X687259Y397954D01*
X687936Y396320D01*
X687999Y395999D01*
X681599Y395999D01*
G37*
%LPD*%
%LPC*%
G36*
X670601Y395999D02*
X670601Y395999D01*
X670664Y396320D01*
X671341Y397954D01*
X672324Y399425D01*
X673575Y400676D01*
X675046Y401659D01*
X676680Y402336D01*
X677001Y402399D01*
X677001Y395999D01*
X670601Y395999D01*
G37*
%LPD*%
%LPC*%
G36*
X681599Y391401D02*
X681599Y391401D01*
X687999Y391401D01*
X687936Y391080D01*
X687259Y389446D01*
X686276Y387975D01*
X685025Y386724D01*
X683554Y385741D01*
X681920Y385064D01*
X681599Y385001D01*
X681599Y391401D01*
G37*
%LPD*%
%LPC*%
G36*
X676680Y385064D02*
X676680Y385064D01*
X675046Y385741D01*
X673575Y386724D01*
X672324Y387975D01*
X671341Y389446D01*
X670664Y391080D01*
X670601Y391401D01*
X677001Y391401D01*
X677001Y385001D01*
X676680Y385064D01*
G37*
%LPD*%
%LPC*%
G36*
X434022Y434022D02*
X434022Y434022D01*
X434022Y440293D01*
X434356Y440227D01*
X435951Y439566D01*
X437387Y438607D01*
X438607Y437387D01*
X439566Y435951D01*
X440227Y434356D01*
X440293Y434022D01*
X434022Y434022D01*
G37*
%LPD*%
%LPC*%
G36*
X730522Y88322D02*
X730522Y88322D01*
X730522Y94593D01*
X730856Y94527D01*
X732451Y93866D01*
X733887Y92907D01*
X735107Y91687D01*
X736066Y90251D01*
X736727Y88656D01*
X736793Y88322D01*
X730522Y88322D01*
G37*
%LPD*%
%LPC*%
G36*
X755922Y88322D02*
X755922Y88322D01*
X755922Y94593D01*
X756256Y94527D01*
X757851Y93866D01*
X759287Y92907D01*
X760507Y91687D01*
X761466Y90251D01*
X762127Y88656D01*
X762193Y88322D01*
X755922Y88322D01*
G37*
%LPD*%
%LPC*%
G36*
X332422Y434022D02*
X332422Y434022D01*
X332422Y440293D01*
X332756Y440227D01*
X334351Y439566D01*
X335787Y438607D01*
X337007Y437387D01*
X337966Y435951D01*
X338627Y434356D01*
X338693Y434022D01*
X332422Y434022D01*
G37*
%LPD*%
%LPC*%
G36*
X256222Y434022D02*
X256222Y434022D01*
X256222Y440293D01*
X256556Y440227D01*
X258151Y439566D01*
X259587Y438607D01*
X260807Y437387D01*
X261766Y435951D01*
X262427Y434356D01*
X262493Y434022D01*
X256222Y434022D01*
G37*
%LPD*%
%LPC*%
G36*
X654322Y113722D02*
X654322Y113722D01*
X654322Y119993D01*
X654656Y119927D01*
X656251Y119266D01*
X657687Y118307D01*
X658907Y117087D01*
X659866Y115651D01*
X660527Y114056D01*
X660593Y113722D01*
X654322Y113722D01*
G37*
%LPD*%
%LPC*%
G36*
X730522Y113722D02*
X730522Y113722D01*
X730522Y119993D01*
X730856Y119927D01*
X732451Y119266D01*
X733887Y118307D01*
X735107Y117087D01*
X736066Y115651D01*
X736727Y114056D01*
X736793Y113722D01*
X730522Y113722D01*
G37*
%LPD*%
%LPC*%
G36*
X654322Y342322D02*
X654322Y342322D01*
X654322Y348593D01*
X654656Y348527D01*
X656251Y347866D01*
X657687Y346907D01*
X658907Y345687D01*
X659866Y344251D01*
X660527Y342656D01*
X660593Y342322D01*
X654322Y342322D01*
G37*
%LPD*%
%LPC*%
G36*
X730522Y342322D02*
X730522Y342322D01*
X730522Y348593D01*
X730856Y348527D01*
X732451Y347866D01*
X733887Y346907D01*
X735107Y345687D01*
X736066Y344251D01*
X736727Y342656D01*
X736793Y342322D01*
X730522Y342322D01*
G37*
%LPD*%
%LPC*%
G36*
X643607Y342322D02*
X643607Y342322D01*
X643673Y342656D01*
X644334Y344251D01*
X645293Y345687D01*
X646513Y346907D01*
X647949Y347866D01*
X649544Y348527D01*
X649878Y348593D01*
X649878Y342322D01*
X643607Y342322D01*
G37*
%LPD*%
%LPC*%
G36*
X719807Y113722D02*
X719807Y113722D01*
X719873Y114056D01*
X720534Y115651D01*
X721493Y117087D01*
X722713Y118307D01*
X724149Y119266D01*
X725744Y119927D01*
X726078Y119993D01*
X726078Y113722D01*
X719807Y113722D01*
G37*
%LPD*%
%LPC*%
G36*
X730522Y337878D02*
X730522Y337878D01*
X736793Y337878D01*
X736727Y337544D01*
X736066Y335949D01*
X735107Y334513D01*
X733887Y333293D01*
X732451Y332334D01*
X730856Y331673D01*
X730522Y331607D01*
X730522Y337878D01*
G37*
%LPD*%
%LPC*%
G36*
X643607Y113722D02*
X643607Y113722D01*
X643673Y114056D01*
X644334Y115651D01*
X645293Y117087D01*
X646513Y118307D01*
X647949Y119266D01*
X649544Y119927D01*
X649878Y119993D01*
X649878Y113722D01*
X643607Y113722D01*
G37*
%LPD*%
%LPC*%
G36*
X423307Y434022D02*
X423307Y434022D01*
X423373Y434356D01*
X424034Y435951D01*
X424993Y437387D01*
X426213Y438607D01*
X427649Y439566D01*
X429244Y440227D01*
X429578Y440293D01*
X429578Y434022D01*
X423307Y434022D01*
G37*
%LPD*%
%LPC*%
G36*
X654322Y109278D02*
X654322Y109278D01*
X660593Y109278D01*
X660527Y108944D01*
X659866Y107349D01*
X658907Y105913D01*
X657687Y104693D01*
X656251Y103734D01*
X654656Y103073D01*
X654322Y103007D01*
X654322Y109278D01*
G37*
%LPD*%
%LPC*%
G36*
X755922Y83878D02*
X755922Y83878D01*
X762193Y83878D01*
X762127Y83544D01*
X761466Y81949D01*
X760507Y80513D01*
X759287Y79293D01*
X757851Y78334D01*
X756256Y77673D01*
X755922Y77607D01*
X755922Y83878D01*
G37*
%LPD*%
%LPC*%
G36*
X730522Y109278D02*
X730522Y109278D01*
X736793Y109278D01*
X736727Y108944D01*
X736066Y107349D01*
X735107Y105913D01*
X733887Y104693D01*
X732451Y103734D01*
X730856Y103073D01*
X730522Y103007D01*
X730522Y109278D01*
G37*
%LPD*%
%LPC*%
G36*
X730522Y83878D02*
X730522Y83878D01*
X736793Y83878D01*
X736727Y83544D01*
X736066Y81949D01*
X735107Y80513D01*
X733887Y79293D01*
X732451Y78334D01*
X730856Y77673D01*
X730522Y77607D01*
X730522Y83878D01*
G37*
%LPD*%
%LPC*%
G36*
X719807Y342322D02*
X719807Y342322D01*
X719873Y342656D01*
X720534Y344251D01*
X721493Y345687D01*
X722713Y346907D01*
X724149Y347866D01*
X725744Y348527D01*
X726078Y348593D01*
X726078Y342322D01*
X719807Y342322D01*
G37*
%LPD*%
%LPC*%
G36*
X654322Y337878D02*
X654322Y337878D01*
X660593Y337878D01*
X660527Y337544D01*
X659866Y335949D01*
X658907Y334513D01*
X657687Y333293D01*
X656251Y332334D01*
X654656Y331673D01*
X654322Y331607D01*
X654322Y337878D01*
G37*
%LPD*%
%LPC*%
G36*
X745207Y88322D02*
X745207Y88322D01*
X745273Y88656D01*
X745934Y90251D01*
X746893Y91687D01*
X748113Y92907D01*
X749549Y93866D01*
X751144Y94527D01*
X751478Y94593D01*
X751478Y88322D01*
X745207Y88322D01*
G37*
%LPD*%
%LPC*%
G36*
X719807Y88322D02*
X719807Y88322D01*
X719873Y88656D01*
X720534Y90251D01*
X721493Y91687D01*
X722713Y92907D01*
X724149Y93866D01*
X725744Y94527D01*
X726078Y94593D01*
X726078Y88322D01*
X719807Y88322D01*
G37*
%LPD*%
%LPC*%
G36*
X245507Y434022D02*
X245507Y434022D01*
X245573Y434356D01*
X246234Y435951D01*
X247193Y437387D01*
X248413Y438607D01*
X249849Y439566D01*
X251444Y440227D01*
X251778Y440293D01*
X251778Y434022D01*
X245507Y434022D01*
G37*
%LPD*%
%LPC*%
G36*
X321707Y434022D02*
X321707Y434022D01*
X321773Y434356D01*
X322434Y435951D01*
X323393Y437387D01*
X324613Y438607D01*
X326049Y439566D01*
X327644Y440227D01*
X327978Y440293D01*
X327978Y434022D01*
X321707Y434022D01*
G37*
%LPD*%
%LPC*%
G36*
X256222Y429578D02*
X256222Y429578D01*
X262493Y429578D01*
X262427Y429244D01*
X261766Y427649D01*
X260807Y426213D01*
X259587Y424993D01*
X258151Y424034D01*
X256556Y423373D01*
X256222Y423307D01*
X256222Y429578D01*
G37*
%LPD*%
%LPC*%
G36*
X434022Y429578D02*
X434022Y429578D01*
X440293Y429578D01*
X440227Y429244D01*
X439566Y427649D01*
X438607Y426213D01*
X437387Y424993D01*
X435951Y424034D01*
X434356Y423373D01*
X434022Y423307D01*
X434022Y429578D01*
G37*
%LPD*%
%LPC*%
G36*
X332422Y429578D02*
X332422Y429578D01*
X338693Y429578D01*
X338627Y429244D01*
X337966Y427649D01*
X337007Y426213D01*
X335787Y424993D01*
X334351Y424034D01*
X332756Y423373D01*
X332422Y423307D01*
X332422Y429578D01*
G37*
%LPD*%
%LPC*%
G36*
X429244Y423373D02*
X429244Y423373D01*
X427649Y424034D01*
X426213Y424993D01*
X424993Y426213D01*
X424034Y427649D01*
X423373Y429244D01*
X423307Y429578D01*
X429578Y429578D01*
X429578Y423307D01*
X429244Y423373D01*
G37*
%LPD*%
%LPC*%
G36*
X327644Y423373D02*
X327644Y423373D01*
X326049Y424034D01*
X324613Y424993D01*
X323393Y426213D01*
X322434Y427649D01*
X321773Y429244D01*
X321707Y429578D01*
X327978Y429578D01*
X327978Y423307D01*
X327644Y423373D01*
G37*
%LPD*%
%LPC*%
G36*
X725744Y331673D02*
X725744Y331673D01*
X724149Y332334D01*
X722713Y333293D01*
X721493Y334513D01*
X720534Y335949D01*
X719873Y337544D01*
X719807Y337878D01*
X726078Y337878D01*
X726078Y331607D01*
X725744Y331673D01*
G37*
%LPD*%
%LPC*%
G36*
X251444Y423373D02*
X251444Y423373D01*
X249849Y424034D01*
X248413Y424993D01*
X247193Y426213D01*
X246234Y427649D01*
X245573Y429244D01*
X245507Y429578D01*
X251778Y429578D01*
X251778Y423307D01*
X251444Y423373D01*
G37*
%LPD*%
%LPC*%
G36*
X751144Y77673D02*
X751144Y77673D01*
X749549Y78334D01*
X748113Y79293D01*
X746893Y80513D01*
X745934Y81949D01*
X745273Y83544D01*
X745207Y83878D01*
X751478Y83878D01*
X751478Y77607D01*
X751144Y77673D01*
G37*
%LPD*%
%LPC*%
G36*
X649544Y103073D02*
X649544Y103073D01*
X647949Y103734D01*
X646513Y104693D01*
X645293Y105913D01*
X644334Y107349D01*
X643673Y108944D01*
X643607Y109278D01*
X649878Y109278D01*
X649878Y103007D01*
X649544Y103073D01*
G37*
%LPD*%
%LPC*%
G36*
X725744Y77673D02*
X725744Y77673D01*
X724149Y78334D01*
X722713Y79293D01*
X721493Y80513D01*
X720534Y81949D01*
X719873Y83544D01*
X719807Y83878D01*
X726078Y83878D01*
X726078Y77607D01*
X725744Y77673D01*
G37*
%LPD*%
%LPC*%
G36*
X725744Y103073D02*
X725744Y103073D01*
X724149Y103734D01*
X722713Y104693D01*
X721493Y105913D01*
X720534Y107349D01*
X719873Y108944D01*
X719807Y109278D01*
X726078Y109278D01*
X726078Y103007D01*
X725744Y103073D01*
G37*
%LPD*%
%LPC*%
G36*
X649544Y331673D02*
X649544Y331673D01*
X647949Y332334D01*
X646513Y333293D01*
X645293Y334513D01*
X644334Y335949D01*
X643673Y337544D01*
X643607Y337878D01*
X649878Y337878D01*
X649878Y331607D01*
X649544Y331673D01*
G37*
%LPD*%
%LPC*%
G36*
X497299Y221824D02*
X497299Y221824D01*
X497299Y227728D01*
X497675Y227653D01*
X499156Y227039D01*
X500489Y226148D01*
X501623Y225014D01*
X502514Y223681D01*
X503128Y222200D01*
X503203Y221824D01*
X497299Y221824D01*
G37*
%LPD*%
%LPC*%
G36*
X497299Y217826D02*
X497299Y217826D01*
X503203Y217826D01*
X503128Y217450D01*
X502514Y215969D01*
X501623Y214636D01*
X500489Y213502D01*
X499156Y212611D01*
X497675Y211997D01*
X497299Y211922D01*
X497299Y217826D01*
G37*
%LPD*%
%LPC*%
G36*
X487397Y221824D02*
X487397Y221824D01*
X487472Y222200D01*
X488086Y223681D01*
X488977Y225014D01*
X490111Y226148D01*
X491444Y227039D01*
X492925Y227653D01*
X493301Y227728D01*
X493301Y221824D01*
X487397Y221824D01*
G37*
%LPD*%
%LPC*%
G36*
X492925Y211997D02*
X492925Y211997D01*
X491444Y212611D01*
X490111Y213502D01*
X488977Y214636D01*
X488086Y215969D01*
X487472Y217450D01*
X487397Y217826D01*
X493301Y217826D01*
X493301Y211922D01*
X492925Y211997D01*
G37*
%LPD*%
%LPC*%
G36*
X900699Y159149D02*
X900699Y159149D01*
X900699Y159151D01*
X900701Y159151D01*
X900701Y159149D01*
X900699Y159149D01*
G37*
%LPD*%
%LPC*%
G36*
X775699Y159149D02*
X775699Y159149D01*
X775699Y159151D01*
X775701Y159151D01*
X775701Y159149D01*
X775699Y159149D01*
G37*
%LPD*%
%LPC*%
G36*
X597899Y159149D02*
X597899Y159149D01*
X597899Y159151D01*
X597901Y159151D01*
X597901Y159149D01*
X597899Y159149D01*
G37*
%LPD*%
%LPC*%
G36*
X722899Y159149D02*
X722899Y159149D01*
X722899Y159151D01*
X722901Y159151D01*
X722901Y159149D01*
X722899Y159149D01*
G37*
%LPD*%
D10*
X190500Y165100D03*
X190500Y139700D03*
X190500Y254000D03*
X190500Y228600D03*
D11*
X900700Y209150D03*
X900700Y159150D03*
X775700Y159150D03*
X775700Y209150D03*
X722900Y209150D03*
X722900Y159150D03*
X597900Y159150D03*
X597900Y209150D03*
D10*
X482600Y431800D03*
X457200Y431800D03*
X431800Y431800D03*
D12*
X495300Y219825D03*
X495300Y154825D03*
D13*
X749300Y393700D03*
X724300Y393700D03*
X704300Y393700D03*
X679300Y393700D03*
D14*
X780000Y420800D03*
X648600Y420800D03*
D15*
X387350Y304800D03*
X387350Y279400D03*
X387350Y254000D03*
X387350Y228600D03*
X387350Y203200D03*
X387350Y177800D03*
X387350Y152400D03*
X387350Y127000D03*
X300770Y304800D03*
X335770Y304800D03*
X260350Y254000D03*
X260350Y279400D03*
X260350Y203200D03*
X260350Y228600D03*
X260350Y152400D03*
X260350Y177800D03*
D16*
X260350Y114300D03*
X260350Y317500D03*
D10*
X381000Y431800D03*
X355600Y431800D03*
X330200Y431800D03*
X279400Y431800D03*
X254000Y431800D03*
X906100Y86100D03*
X906100Y111500D03*
X880700Y86100D03*
X880700Y111500D03*
X855300Y86100D03*
X855300Y111500D03*
X829900Y86100D03*
X829900Y111500D03*
X804500Y86100D03*
X804500Y111500D03*
X779100Y86100D03*
X779100Y111500D03*
X753700Y86100D03*
X753700Y111500D03*
X728300Y86100D03*
X728300Y111500D03*
X702900Y86100D03*
X702900Y111500D03*
X677500Y86100D03*
X677500Y111500D03*
X652100Y86100D03*
X652100Y111500D03*
X626700Y86100D03*
X626700Y111500D03*
X601300Y86100D03*
X601300Y111500D03*
X575900Y86100D03*
X575900Y111500D03*
X550500Y86100D03*
X550500Y111500D03*
X525100Y86100D03*
X525100Y111500D03*
X499700Y86100D03*
X499700Y111500D03*
X474300Y86100D03*
X474300Y111500D03*
X906100Y340100D03*
X906100Y365500D03*
X880700Y340100D03*
X880700Y365500D03*
X855300Y340100D03*
X855300Y365500D03*
X829900Y340100D03*
X829900Y365500D03*
X804500Y340100D03*
X804500Y365500D03*
X779100Y340100D03*
X779100Y365500D03*
X753700Y340100D03*
X753700Y365500D03*
X728300Y340100D03*
X728300Y365500D03*
X702900Y340100D03*
X702900Y365500D03*
X677500Y340100D03*
X677500Y365500D03*
X652100Y340100D03*
X652100Y365500D03*
X626700Y340100D03*
X626700Y365500D03*
X601300Y340100D03*
X601300Y365500D03*
X575900Y340100D03*
X575900Y365500D03*
X550500Y340100D03*
X550500Y365500D03*
X525100Y340100D03*
X525100Y365500D03*
X499700Y340100D03*
X499700Y365500D03*
X474300Y340100D03*
X474300Y365500D03*
D17*
X965200Y457200D03*
X177800Y457200D03*
X965200Y50800D03*
X177800Y50800D03*
D18*
X641350Y266700D03*
X812800Y266700D03*
X914400Y457200D03*
X749300Y234950D03*
X927100Y234950D03*
D19*
X844550Y304800D03*
M02*
