G04 EAGLE Gerber RS-274X export*
G75*
%MOMM*%
%FSLAX34Y34*%
%LPD*%
%INTop Copper*%
%IPPOS*%
%AMOC8*
5,1,8,0,0,1.08239X$1,22.5*%
G01*
%ADD10C,1.651000*%
%ADD11R,0.800000X0.800000*%
%ADD12C,1.960000*%
%ADD13R,0.508000X0.609600*%
%ADD14R,1.651000X1.651000*%
%ADD15C,1.120000*%
%ADD16R,1.288000X1.288000*%
%ADD17C,1.288000*%
%ADD18C,3.220000*%
%ADD19R,1.778000X1.778000*%
%ADD20C,1.778000*%
%ADD21C,2.184400*%
%ADD22C,3.500000*%
%ADD23R,1.524000X1.524000*%
%ADD24P,1.649562X8X202.500000*%
%ADD25R,0.609600X0.508000*%
%ADD26C,4.445000*%
%ADD27C,1.016000*%
%ADD28C,0.254000*%
%ADD29C,0.609600*%
%ADD30C,0.654800*%
%ADD31C,0.762000*%

G36*
X1013444Y504308D02*
X1013444Y504308D01*
X1013437Y504427D01*
X1013424Y504465D01*
X1013419Y504506D01*
X1013376Y504616D01*
X1013339Y504729D01*
X1013317Y504764D01*
X1013302Y504801D01*
X1013233Y504897D01*
X1013169Y504998D01*
X1013139Y505026D01*
X1013116Y505059D01*
X1013024Y505135D01*
X1012937Y505216D01*
X1012902Y505236D01*
X1012871Y505261D01*
X1012763Y505312D01*
X1012659Y505370D01*
X1012619Y505380D01*
X1012583Y505397D01*
X1012466Y505419D01*
X1012351Y505449D01*
X1012291Y505453D01*
X1012271Y505457D01*
X1012250Y505455D01*
X1012190Y505459D01*
X130810Y505459D01*
X130692Y505444D01*
X130573Y505437D01*
X130535Y505424D01*
X130494Y505419D01*
X130384Y505376D01*
X130271Y505339D01*
X130236Y505317D01*
X130199Y505302D01*
X130103Y505233D01*
X130002Y505169D01*
X129974Y505139D01*
X129941Y505116D01*
X129865Y505024D01*
X129784Y504937D01*
X129764Y504902D01*
X129739Y504871D01*
X129688Y504763D01*
X129630Y504659D01*
X129620Y504619D01*
X129603Y504583D01*
X129581Y504466D01*
X129551Y504351D01*
X129547Y504291D01*
X129543Y504271D01*
X129545Y504250D01*
X129541Y504190D01*
X129541Y3810D01*
X129556Y3692D01*
X129563Y3573D01*
X129576Y3535D01*
X129581Y3494D01*
X129624Y3384D01*
X129661Y3271D01*
X129683Y3236D01*
X129698Y3199D01*
X129767Y3103D01*
X129831Y3002D01*
X129861Y2974D01*
X129884Y2941D01*
X129976Y2865D01*
X130063Y2784D01*
X130098Y2764D01*
X130129Y2739D01*
X130237Y2688D01*
X130341Y2630D01*
X130381Y2620D01*
X130417Y2603D01*
X130534Y2581D01*
X130649Y2551D01*
X130709Y2547D01*
X130729Y2543D01*
X130750Y2545D01*
X130810Y2541D01*
X1012190Y2541D01*
X1012308Y2556D01*
X1012427Y2563D01*
X1012465Y2576D01*
X1012506Y2581D01*
X1012616Y2624D01*
X1012729Y2661D01*
X1012764Y2683D01*
X1012801Y2698D01*
X1012897Y2767D01*
X1012998Y2831D01*
X1013026Y2861D01*
X1013059Y2884D01*
X1013135Y2976D01*
X1013216Y3063D01*
X1013236Y3098D01*
X1013261Y3129D01*
X1013312Y3237D01*
X1013370Y3341D01*
X1013380Y3381D01*
X1013397Y3417D01*
X1013419Y3534D01*
X1013449Y3649D01*
X1013453Y3709D01*
X1013457Y3729D01*
X1013455Y3750D01*
X1013459Y3810D01*
X1013459Y504190D01*
X1013444Y504308D01*
G37*
%LPC*%
G36*
X215900Y417831D02*
X215900Y417831D01*
X216018Y417846D01*
X216137Y417853D01*
X216175Y417866D01*
X216216Y417871D01*
X216326Y417914D01*
X216439Y417951D01*
X216474Y417973D01*
X216511Y417988D01*
X216607Y418058D01*
X216708Y418121D01*
X216736Y418151D01*
X216769Y418174D01*
X216845Y418266D01*
X216926Y418353D01*
X216946Y418388D01*
X216971Y418419D01*
X217022Y418527D01*
X217080Y418631D01*
X217090Y418671D01*
X217107Y418707D01*
X217129Y418824D01*
X217159Y418939D01*
X217163Y419000D01*
X217167Y419020D01*
X217165Y419040D01*
X217169Y419100D01*
X217169Y481331D01*
X621031Y481331D01*
X621031Y406400D01*
X621046Y406282D01*
X621053Y406163D01*
X621066Y406125D01*
X621071Y406084D01*
X621114Y405974D01*
X621151Y405861D01*
X621173Y405826D01*
X621188Y405789D01*
X621258Y405693D01*
X621321Y405592D01*
X621351Y405564D01*
X621374Y405531D01*
X621466Y405456D01*
X621553Y405374D01*
X621588Y405354D01*
X621619Y405329D01*
X621727Y405278D01*
X621831Y405220D01*
X621871Y405210D01*
X621907Y405193D01*
X622024Y405171D01*
X622139Y405141D01*
X622200Y405137D01*
X622220Y405133D01*
X622240Y405135D01*
X622300Y405131D01*
X634843Y405131D01*
X634981Y405148D01*
X635119Y405161D01*
X635138Y405168D01*
X635159Y405171D01*
X635288Y405222D01*
X635419Y405269D01*
X635436Y405280D01*
X635454Y405288D01*
X635567Y405369D01*
X635682Y405447D01*
X635695Y405463D01*
X635712Y405474D01*
X635800Y405582D01*
X635892Y405686D01*
X635901Y405704D01*
X635914Y405719D01*
X635974Y405845D01*
X636037Y405969D01*
X636041Y405989D01*
X636050Y406007D01*
X636076Y406144D01*
X636107Y406279D01*
X636106Y406300D01*
X636110Y406320D01*
X636101Y406458D01*
X636097Y406597D01*
X636091Y406617D01*
X636090Y406637D01*
X636047Y406769D01*
X636008Y406903D01*
X635998Y406920D01*
X635992Y406939D01*
X635917Y407057D01*
X635847Y407177D01*
X635828Y407198D01*
X635822Y407208D01*
X635807Y407222D01*
X635741Y407298D01*
X634555Y408483D01*
X633068Y410422D01*
X631846Y412538D01*
X630911Y414795D01*
X630278Y417155D01*
X630133Y418261D01*
X647330Y418261D01*
X647448Y418276D01*
X647567Y418283D01*
X647605Y418296D01*
X647645Y418301D01*
X647756Y418344D01*
X647869Y418381D01*
X647903Y418403D01*
X647941Y418418D01*
X648037Y418488D01*
X648138Y418551D01*
X648166Y418581D01*
X648198Y418604D01*
X648274Y418696D01*
X648356Y418783D01*
X648375Y418818D01*
X648401Y418849D01*
X648452Y418957D01*
X648509Y419061D01*
X648520Y419101D01*
X648537Y419137D01*
X648559Y419254D01*
X648589Y419369D01*
X648593Y419430D01*
X648597Y419450D01*
X648595Y419470D01*
X648599Y419530D01*
X648599Y420801D01*
X649870Y420801D01*
X649988Y420816D01*
X650107Y420823D01*
X650145Y420836D01*
X650185Y420841D01*
X650296Y420885D01*
X650409Y420921D01*
X650444Y420943D01*
X650481Y420958D01*
X650577Y421028D01*
X650678Y421091D01*
X650706Y421121D01*
X650739Y421145D01*
X650814Y421236D01*
X650896Y421323D01*
X650916Y421358D01*
X650941Y421390D01*
X650992Y421497D01*
X651050Y421602D01*
X651060Y421641D01*
X651077Y421677D01*
X651099Y421794D01*
X651129Y421909D01*
X651133Y421970D01*
X651137Y421990D01*
X651135Y422010D01*
X651139Y422070D01*
X651139Y439267D01*
X652245Y439122D01*
X654605Y438489D01*
X656862Y437554D01*
X658979Y436332D01*
X659627Y435835D01*
X659676Y435806D01*
X659719Y435770D01*
X659813Y435726D01*
X659902Y435674D01*
X659956Y435659D01*
X660007Y435635D01*
X660108Y435615D01*
X660208Y435587D01*
X660264Y435585D01*
X660320Y435575D01*
X660422Y435581D01*
X660526Y435578D01*
X660581Y435591D01*
X660637Y435595D01*
X660735Y435626D01*
X660836Y435649D01*
X660886Y435675D01*
X660939Y435693D01*
X661027Y435748D01*
X661118Y435795D01*
X661160Y435833D01*
X661208Y435863D01*
X661279Y435938D01*
X661356Y436007D01*
X661387Y436053D01*
X661426Y436094D01*
X661476Y436185D01*
X661533Y436270D01*
X661552Y436323D01*
X661580Y436373D01*
X661601Y436457D01*
X661607Y436469D01*
X661610Y436487D01*
X661640Y436570D01*
X661645Y436626D01*
X661659Y436681D01*
X661665Y436772D01*
X661667Y436782D01*
X661666Y436791D01*
X661669Y436842D01*
X661669Y481331D01*
X760731Y481331D01*
X760731Y429371D01*
X760740Y429302D01*
X760738Y429232D01*
X760759Y429145D01*
X760771Y429056D01*
X760796Y428991D01*
X760813Y428923D01*
X760855Y428844D01*
X760888Y428760D01*
X760929Y428704D01*
X760961Y428642D01*
X761022Y428576D01*
X761074Y428503D01*
X761128Y428458D01*
X761175Y428407D01*
X761250Y428357D01*
X761319Y428300D01*
X761383Y428270D01*
X761441Y428232D01*
X761526Y428203D01*
X761607Y428165D01*
X761676Y428151D01*
X761742Y428129D01*
X761831Y428122D01*
X761920Y428105D01*
X761989Y428109D01*
X762059Y428104D01*
X762147Y428119D01*
X762237Y428125D01*
X762303Y428146D01*
X762372Y428158D01*
X762454Y428195D01*
X762539Y428223D01*
X762599Y428260D01*
X762662Y428289D01*
X762732Y428345D01*
X762808Y428393D01*
X762856Y428444D01*
X762911Y428487D01*
X762964Y428559D01*
X763026Y428624D01*
X763060Y428685D01*
X763102Y428741D01*
X763173Y428886D01*
X763246Y429062D01*
X764468Y431178D01*
X765955Y433117D01*
X767683Y434845D01*
X769622Y436332D01*
X771738Y437554D01*
X773995Y438489D01*
X776355Y439122D01*
X777461Y439267D01*
X777461Y422070D01*
X777476Y421952D01*
X777483Y421833D01*
X777496Y421795D01*
X777501Y421755D01*
X777544Y421644D01*
X777581Y421531D01*
X777603Y421497D01*
X777618Y421459D01*
X777688Y421363D01*
X777751Y421262D01*
X777781Y421234D01*
X777804Y421202D01*
X777896Y421126D01*
X777983Y421044D01*
X778018Y421025D01*
X778049Y420999D01*
X778157Y420948D01*
X778261Y420891D01*
X778301Y420880D01*
X778337Y420863D01*
X778454Y420841D01*
X778569Y420811D01*
X778630Y420807D01*
X778650Y420803D01*
X778670Y420805D01*
X778730Y420801D01*
X780001Y420801D01*
X780001Y419530D01*
X780016Y419412D01*
X780023Y419293D01*
X780036Y419255D01*
X780041Y419214D01*
X780085Y419104D01*
X780121Y418991D01*
X780143Y418956D01*
X780158Y418919D01*
X780228Y418823D01*
X780291Y418722D01*
X780321Y418694D01*
X780345Y418661D01*
X780436Y418586D01*
X780523Y418504D01*
X780558Y418484D01*
X780590Y418459D01*
X780697Y418408D01*
X780802Y418350D01*
X780841Y418340D01*
X780877Y418323D01*
X780994Y418301D01*
X781109Y418271D01*
X781170Y418267D01*
X781190Y418263D01*
X781210Y418265D01*
X781270Y418261D01*
X798467Y418261D01*
X798322Y417155D01*
X797689Y414795D01*
X796754Y412538D01*
X795532Y410422D01*
X794045Y408483D01*
X792859Y407298D01*
X792775Y407188D01*
X792686Y407081D01*
X792677Y407062D01*
X792665Y407046D01*
X792609Y406919D01*
X792550Y406793D01*
X792546Y406773D01*
X792538Y406754D01*
X792516Y406616D01*
X792490Y406481D01*
X792492Y406460D01*
X792488Y406440D01*
X792501Y406301D01*
X792510Y406163D01*
X792516Y406144D01*
X792518Y406124D01*
X792565Y405992D01*
X792608Y405861D01*
X792619Y405843D01*
X792626Y405824D01*
X792704Y405709D01*
X792778Y405592D01*
X792793Y405578D01*
X792804Y405561D01*
X792908Y405469D01*
X793010Y405374D01*
X793028Y405364D01*
X793043Y405351D01*
X793166Y405288D01*
X793288Y405220D01*
X793308Y405215D01*
X793326Y405206D01*
X793462Y405176D01*
X793596Y405141D01*
X793624Y405139D01*
X793636Y405137D01*
X793657Y405137D01*
X793757Y405131D01*
X800100Y405131D01*
X800218Y405146D01*
X800337Y405153D01*
X800375Y405166D01*
X800416Y405171D01*
X800526Y405214D01*
X800639Y405251D01*
X800674Y405273D01*
X800711Y405288D01*
X800807Y405358D01*
X800908Y405421D01*
X800936Y405451D01*
X800969Y405474D01*
X801045Y405566D01*
X801126Y405653D01*
X801146Y405688D01*
X801171Y405719D01*
X801222Y405827D01*
X801280Y405931D01*
X801290Y405971D01*
X801307Y406007D01*
X801329Y406124D01*
X801359Y406239D01*
X801363Y406300D01*
X801367Y406320D01*
X801365Y406340D01*
X801369Y406400D01*
X801369Y481331D01*
X908050Y481331D01*
X908168Y481346D01*
X908287Y481353D01*
X908325Y481366D01*
X908366Y481371D01*
X908476Y481414D01*
X908589Y481451D01*
X908624Y481473D01*
X908661Y481488D01*
X908757Y481558D01*
X908858Y481621D01*
X908886Y481651D01*
X908919Y481674D01*
X908995Y481766D01*
X909076Y481853D01*
X909096Y481888D01*
X909121Y481919D01*
X909172Y482027D01*
X909230Y482131D01*
X909240Y482171D01*
X909257Y482207D01*
X909279Y482324D01*
X909309Y482439D01*
X909313Y482500D01*
X909317Y482520D01*
X909315Y482540D01*
X909319Y482600D01*
X909319Y485220D01*
X909492Y485867D01*
X909827Y486446D01*
X910300Y486919D01*
X910879Y487254D01*
X911526Y487427D01*
X913131Y487427D01*
X913131Y482600D01*
X913146Y482482D01*
X913153Y482363D01*
X913165Y482325D01*
X913170Y482284D01*
X913214Y482174D01*
X913251Y482061D01*
X913273Y482026D01*
X913287Y481989D01*
X913357Y481893D01*
X913421Y481792D01*
X913451Y481764D01*
X913474Y481731D01*
X913566Y481656D01*
X913653Y481574D01*
X913688Y481554D01*
X913719Y481529D01*
X913827Y481478D01*
X913931Y481420D01*
X913970Y481410D01*
X914007Y481393D01*
X914124Y481371D01*
X914239Y481341D01*
X914299Y481337D01*
X914319Y481333D01*
X914320Y481333D01*
X914340Y481335D01*
X914400Y481331D01*
X914518Y481346D01*
X914637Y481353D01*
X914675Y481366D01*
X914716Y481371D01*
X914826Y481414D01*
X914940Y481451D01*
X914974Y481473D01*
X915011Y481488D01*
X915108Y481558D01*
X915208Y481621D01*
X915236Y481651D01*
X915269Y481674D01*
X915345Y481766D01*
X915426Y481853D01*
X915446Y481888D01*
X915472Y481919D01*
X915522Y482027D01*
X915580Y482131D01*
X915590Y482171D01*
X915607Y482207D01*
X915629Y482324D01*
X915659Y482439D01*
X915663Y482500D01*
X915667Y482520D01*
X915666Y482540D01*
X915669Y482600D01*
X915669Y487427D01*
X917274Y487427D01*
X917921Y487254D01*
X918500Y486919D01*
X918973Y486446D01*
X919308Y485867D01*
X919481Y485220D01*
X919481Y482600D01*
X919496Y482482D01*
X919503Y482363D01*
X919516Y482325D01*
X919521Y482284D01*
X919564Y482174D01*
X919601Y482061D01*
X919623Y482026D01*
X919638Y481989D01*
X919707Y481893D01*
X919771Y481792D01*
X919801Y481764D01*
X919824Y481731D01*
X919916Y481656D01*
X920003Y481574D01*
X920038Y481554D01*
X920069Y481529D01*
X920177Y481478D01*
X920281Y481420D01*
X920321Y481410D01*
X920357Y481393D01*
X920474Y481371D01*
X920589Y481341D01*
X920649Y481337D01*
X920669Y481333D01*
X920690Y481335D01*
X920750Y481331D01*
X925831Y481331D01*
X925831Y419100D01*
X925846Y418982D01*
X925853Y418863D01*
X925866Y418825D01*
X925871Y418784D01*
X925914Y418674D01*
X925951Y418561D01*
X925973Y418526D01*
X925988Y418489D01*
X926058Y418393D01*
X926121Y418292D01*
X926151Y418264D01*
X926174Y418231D01*
X926266Y418156D01*
X926353Y418074D01*
X926388Y418054D01*
X926419Y418029D01*
X926527Y417978D01*
X926631Y417920D01*
X926671Y417910D01*
X926707Y417893D01*
X926824Y417871D01*
X926939Y417841D01*
X927000Y417837D01*
X927020Y417833D01*
X927040Y417835D01*
X927100Y417831D01*
X989331Y417831D01*
X989331Y90169D01*
X927100Y90169D01*
X926982Y90154D01*
X926863Y90147D01*
X926825Y90134D01*
X926784Y90129D01*
X926674Y90086D01*
X926561Y90049D01*
X926526Y90027D01*
X926489Y90012D01*
X926393Y89943D01*
X926292Y89879D01*
X926264Y89849D01*
X926231Y89826D01*
X926156Y89734D01*
X926074Y89647D01*
X926054Y89612D01*
X926029Y89581D01*
X925978Y89473D01*
X925920Y89369D01*
X925910Y89329D01*
X925893Y89293D01*
X925871Y89176D01*
X925841Y89061D01*
X925837Y89001D01*
X925833Y88981D01*
X925835Y88960D01*
X925831Y88900D01*
X925831Y26669D01*
X217169Y26669D01*
X217169Y88900D01*
X217154Y89018D01*
X217147Y89137D01*
X217134Y89175D01*
X217129Y89216D01*
X217086Y89326D01*
X217049Y89439D01*
X217027Y89474D01*
X217012Y89511D01*
X216943Y89607D01*
X216879Y89708D01*
X216849Y89736D01*
X216826Y89769D01*
X216734Y89845D01*
X216647Y89926D01*
X216612Y89946D01*
X216581Y89971D01*
X216473Y90022D01*
X216369Y90080D01*
X216329Y90090D01*
X216293Y90107D01*
X216176Y90129D01*
X216061Y90159D01*
X216001Y90163D01*
X215981Y90167D01*
X215960Y90165D01*
X215900Y90169D01*
X153669Y90169D01*
X153669Y417831D01*
X215900Y417831D01*
G37*
%LPD*%
%LPC*%
G36*
X180339Y459739D02*
X180339Y459739D01*
X180339Y481836D01*
X181955Y481654D01*
X184667Y481035D01*
X187292Y480117D01*
X189799Y478910D01*
X192154Y477430D01*
X194329Y475695D01*
X196295Y473729D01*
X198030Y471554D01*
X199510Y469199D01*
X200717Y466692D01*
X201635Y464067D01*
X202254Y461355D01*
X202436Y459739D01*
X180339Y459739D01*
G37*
%LPD*%
%LPC*%
G36*
X180339Y53339D02*
X180339Y53339D01*
X180339Y75436D01*
X181955Y75254D01*
X184667Y74635D01*
X187292Y73717D01*
X189799Y72510D01*
X192154Y71030D01*
X194329Y69295D01*
X196295Y67329D01*
X198030Y65154D01*
X199510Y62799D01*
X200717Y60292D01*
X201635Y57667D01*
X202254Y54955D01*
X202436Y53339D01*
X180339Y53339D01*
G37*
%LPD*%
%LPC*%
G36*
X967739Y53339D02*
X967739Y53339D01*
X967739Y75436D01*
X969355Y75254D01*
X972067Y74635D01*
X974692Y73717D01*
X977199Y72510D01*
X979554Y71030D01*
X981729Y69295D01*
X983695Y67329D01*
X985430Y65154D01*
X986910Y62799D01*
X988117Y60292D01*
X989035Y57667D01*
X989654Y54955D01*
X989836Y53339D01*
X967739Y53339D01*
G37*
%LPD*%
%LPC*%
G36*
X967739Y459739D02*
X967739Y459739D01*
X967739Y481836D01*
X969355Y481654D01*
X972067Y481035D01*
X974692Y480117D01*
X977199Y478910D01*
X979554Y477430D01*
X981729Y475695D01*
X983695Y473729D01*
X985430Y471554D01*
X986910Y469199D01*
X988117Y466692D01*
X989035Y464067D01*
X989654Y461355D01*
X989836Y459739D01*
X967739Y459739D01*
G37*
%LPD*%
%LPC*%
G36*
X180339Y48261D02*
X180339Y48261D01*
X202436Y48261D01*
X202254Y46645D01*
X201635Y43933D01*
X200717Y41308D01*
X199510Y38801D01*
X198030Y36446D01*
X196295Y34271D01*
X194329Y32305D01*
X192154Y30570D01*
X189799Y29090D01*
X187292Y27883D01*
X184667Y26965D01*
X181955Y26346D01*
X180339Y26164D01*
X180339Y48261D01*
G37*
%LPD*%
%LPC*%
G36*
X940564Y459739D02*
X940564Y459739D01*
X940746Y461355D01*
X941365Y464067D01*
X942283Y466692D01*
X943490Y469199D01*
X944970Y471554D01*
X946705Y473729D01*
X948671Y475695D01*
X950846Y477430D01*
X953201Y478910D01*
X955708Y480117D01*
X958333Y481035D01*
X961045Y481654D01*
X962661Y481836D01*
X962661Y459739D01*
X940564Y459739D01*
G37*
%LPD*%
%LPC*%
G36*
X940564Y53339D02*
X940564Y53339D01*
X940746Y54955D01*
X941365Y57667D01*
X942283Y60292D01*
X943490Y62799D01*
X944970Y65154D01*
X946705Y67329D01*
X948671Y69295D01*
X950846Y71030D01*
X953201Y72510D01*
X955708Y73717D01*
X958333Y74635D01*
X961045Y75254D01*
X962661Y75436D01*
X962661Y53339D01*
X940564Y53339D01*
G37*
%LPD*%
%LPC*%
G36*
X180339Y454661D02*
X180339Y454661D01*
X202436Y454661D01*
X202254Y453045D01*
X201635Y450333D01*
X200717Y447708D01*
X199510Y445201D01*
X198030Y442846D01*
X196295Y440671D01*
X194329Y438705D01*
X192154Y436970D01*
X189799Y435490D01*
X187292Y434283D01*
X184667Y433365D01*
X181955Y432746D01*
X180339Y432564D01*
X180339Y454661D01*
G37*
%LPD*%
%LPC*%
G36*
X153164Y53339D02*
X153164Y53339D01*
X153346Y54955D01*
X153965Y57667D01*
X154883Y60292D01*
X156090Y62799D01*
X157570Y65154D01*
X159305Y67329D01*
X161271Y69295D01*
X163446Y71030D01*
X165801Y72510D01*
X168308Y73717D01*
X170933Y74635D01*
X173645Y75254D01*
X175261Y75436D01*
X175261Y53339D01*
X153164Y53339D01*
G37*
%LPD*%
%LPC*%
G36*
X967739Y454661D02*
X967739Y454661D01*
X989836Y454661D01*
X989654Y453045D01*
X989035Y450333D01*
X988117Y447708D01*
X986910Y445201D01*
X985430Y442846D01*
X983695Y440671D01*
X981729Y438705D01*
X979554Y436970D01*
X977199Y435490D01*
X974692Y434283D01*
X972067Y433365D01*
X969355Y432746D01*
X967739Y432564D01*
X967739Y454661D01*
G37*
%LPD*%
%LPC*%
G36*
X153164Y459739D02*
X153164Y459739D01*
X153346Y461355D01*
X153965Y464067D01*
X154883Y466692D01*
X156090Y469199D01*
X157570Y471554D01*
X159305Y473729D01*
X161271Y475695D01*
X163446Y477430D01*
X165801Y478910D01*
X168308Y480117D01*
X170933Y481035D01*
X173645Y481654D01*
X175261Y481836D01*
X175261Y459739D01*
X153164Y459739D01*
G37*
%LPD*%
%LPC*%
G36*
X967739Y48261D02*
X967739Y48261D01*
X989836Y48261D01*
X989654Y46645D01*
X989035Y43933D01*
X988117Y41308D01*
X986910Y38801D01*
X985430Y36446D01*
X983695Y34271D01*
X981729Y32305D01*
X979554Y30570D01*
X977199Y29090D01*
X974692Y27883D01*
X972067Y26965D01*
X969355Y26346D01*
X967739Y26164D01*
X967739Y48261D01*
G37*
%LPD*%
%LPC*%
G36*
X173645Y26346D02*
X173645Y26346D01*
X170933Y26965D01*
X168308Y27883D01*
X165801Y29090D01*
X163446Y30570D01*
X161271Y32305D01*
X159305Y34271D01*
X157570Y36446D01*
X156090Y38801D01*
X154883Y41308D01*
X153965Y43933D01*
X153346Y46645D01*
X153164Y48261D01*
X175261Y48261D01*
X175261Y26164D01*
X173645Y26346D01*
G37*
%LPD*%
%LPC*%
G36*
X961045Y432746D02*
X961045Y432746D01*
X958333Y433365D01*
X955708Y434283D01*
X953201Y435490D01*
X950846Y436970D01*
X948671Y438705D01*
X946705Y440671D01*
X944970Y442846D01*
X943490Y445201D01*
X942283Y447708D01*
X941365Y450333D01*
X940746Y453045D01*
X940564Y454661D01*
X962661Y454661D01*
X962661Y432564D01*
X961045Y432746D01*
G37*
%LPD*%
%LPC*%
G36*
X173645Y432746D02*
X173645Y432746D01*
X170933Y433365D01*
X168308Y434283D01*
X165801Y435490D01*
X163446Y436970D01*
X161271Y438705D01*
X159305Y440671D01*
X157570Y442846D01*
X156090Y445201D01*
X154883Y447708D01*
X153965Y450333D01*
X153346Y453045D01*
X153164Y454661D01*
X175261Y454661D01*
X175261Y432564D01*
X173645Y432746D01*
G37*
%LPD*%
%LPC*%
G36*
X961045Y26346D02*
X961045Y26346D01*
X958333Y26965D01*
X955708Y27883D01*
X953201Y29090D01*
X950846Y30570D01*
X948671Y32305D01*
X946705Y34271D01*
X944970Y36446D01*
X943490Y38801D01*
X942283Y41308D01*
X941365Y43933D01*
X940746Y46645D01*
X940564Y48261D01*
X962661Y48261D01*
X962661Y26164D01*
X961045Y26346D01*
G37*
%LPD*%
%LPC*%
G36*
X782539Y423339D02*
X782539Y423339D01*
X782539Y439267D01*
X783645Y439122D01*
X786005Y438489D01*
X788262Y437554D01*
X790378Y436332D01*
X792317Y434845D01*
X794045Y433117D01*
X795532Y431178D01*
X796754Y429062D01*
X797689Y426805D01*
X798322Y424445D01*
X798467Y423339D01*
X782539Y423339D01*
G37*
%LPD*%
%LPC*%
G36*
X630133Y423339D02*
X630133Y423339D01*
X630278Y424445D01*
X630911Y426805D01*
X631846Y429062D01*
X633068Y431178D01*
X634555Y433117D01*
X636283Y434845D01*
X638222Y436332D01*
X640338Y437554D01*
X642595Y438489D01*
X644955Y439122D01*
X646061Y439267D01*
X646061Y423339D01*
X630133Y423339D01*
G37*
%LPD*%
%LPC*%
G36*
X177799Y457199D02*
X177799Y457199D01*
X177799Y457201D01*
X177801Y457201D01*
X177801Y457199D01*
X177799Y457199D01*
G37*
%LPD*%
%LPC*%
G36*
X965199Y50799D02*
X965199Y50799D01*
X965199Y50801D01*
X965201Y50801D01*
X965201Y50799D01*
X965199Y50799D01*
G37*
%LPD*%
%LPC*%
G36*
X965199Y457199D02*
X965199Y457199D01*
X965199Y457201D01*
X965201Y457201D01*
X965201Y457199D01*
X965199Y457199D01*
G37*
%LPD*%
%LPC*%
G36*
X177799Y50799D02*
X177799Y50799D01*
X177799Y50801D01*
X177801Y50801D01*
X177801Y50799D01*
X177799Y50799D01*
G37*
%LPD*%
D10*
X190500Y165100D03*
X190500Y139700D03*
X190500Y254000D03*
X190500Y228600D03*
D11*
X845700Y266700D03*
X830700Y266700D03*
X667900Y266700D03*
X652900Y266700D03*
D12*
X900700Y209150D03*
X900700Y159150D03*
X775700Y159150D03*
X775700Y209150D03*
X722900Y209150D03*
X722900Y159150D03*
X597900Y159150D03*
X597900Y209150D03*
D13*
X927100Y210312D03*
X927100Y221488D03*
X749300Y213487D03*
X749300Y224663D03*
D14*
X482600Y431800D03*
D10*
X457200Y431800D03*
X431800Y431800D03*
D15*
X495300Y219825D03*
X495300Y154825D03*
D16*
X749300Y393700D03*
D17*
X724300Y393700D03*
X704300Y393700D03*
X679300Y393700D03*
D18*
X780000Y420800D03*
X648600Y420800D03*
D19*
X387350Y304800D03*
D20*
X387350Y279400D03*
X387350Y254000D03*
X387350Y228600D03*
X387350Y203200D03*
X387350Y177800D03*
X387350Y152400D03*
X387350Y127000D03*
D21*
X300770Y304800D03*
X335770Y304800D03*
D20*
X260350Y254000D03*
X260350Y279400D03*
X260350Y203200D03*
X260350Y228600D03*
X260350Y152400D03*
X260350Y177800D03*
D22*
X260350Y114300D03*
X260350Y317500D03*
D14*
X381000Y431800D03*
D10*
X355600Y431800D03*
X330200Y431800D03*
X279400Y431800D03*
X254000Y431800D03*
D23*
X906100Y86100D03*
D24*
X906100Y111500D03*
X880700Y86100D03*
X880700Y111500D03*
X855300Y86100D03*
X855300Y111500D03*
X829900Y86100D03*
X829900Y111500D03*
X804500Y86100D03*
X804500Y111500D03*
X779100Y86100D03*
X779100Y111500D03*
X753700Y86100D03*
X753700Y111500D03*
X728300Y86100D03*
X728300Y111500D03*
X702900Y86100D03*
X702900Y111500D03*
X677500Y86100D03*
X677500Y111500D03*
X652100Y86100D03*
X652100Y111500D03*
X626700Y86100D03*
X626700Y111500D03*
X601300Y86100D03*
X601300Y111500D03*
X575900Y86100D03*
X575900Y111500D03*
X550500Y86100D03*
X550500Y111500D03*
X525100Y86100D03*
X525100Y111500D03*
X499700Y86100D03*
X499700Y111500D03*
X474300Y86100D03*
X474300Y111500D03*
D23*
X906100Y340100D03*
D24*
X906100Y365500D03*
X880700Y340100D03*
X880700Y365500D03*
X855300Y340100D03*
X855300Y365500D03*
X829900Y340100D03*
X829900Y365500D03*
X804500Y340100D03*
X804500Y365500D03*
X779100Y340100D03*
X779100Y365500D03*
X753700Y340100D03*
X753700Y365500D03*
X728300Y340100D03*
X728300Y365500D03*
X702900Y340100D03*
X702900Y365500D03*
X677500Y340100D03*
X677500Y365500D03*
X652100Y340100D03*
X652100Y365500D03*
X626700Y340100D03*
X626700Y365500D03*
X601300Y340100D03*
X601300Y365500D03*
X575900Y340100D03*
X575900Y365500D03*
X550500Y340100D03*
X550500Y365500D03*
X525100Y340100D03*
X525100Y365500D03*
X499700Y340100D03*
X499700Y365500D03*
X474300Y340100D03*
X474300Y365500D03*
D25*
X362712Y469900D03*
X373888Y469900D03*
D26*
X965200Y457200D03*
X177800Y457200D03*
X965200Y50800D03*
X177800Y50800D03*
D13*
X914400Y470662D03*
X914400Y481838D03*
D27*
X177800Y101600D03*
X177800Y406400D03*
X965200Y101600D03*
D28*
X652900Y266700D02*
X641350Y266700D01*
D29*
X641350Y266700D03*
D28*
X812800Y266700D02*
X830700Y266700D01*
D29*
X812800Y266700D03*
D28*
X914400Y457200D02*
X914400Y470662D01*
D29*
X914400Y457200D03*
D28*
X260350Y317500D02*
X203200Y374650D01*
X260350Y114300D02*
X215900Y69850D01*
X203200Y431800D02*
X177800Y457200D01*
X203200Y431800D02*
X203200Y374650D01*
X196850Y69850D02*
X177800Y50800D01*
X196850Y69850D02*
X215900Y69850D01*
X749300Y224663D02*
X749300Y234950D01*
D29*
X749300Y234950D03*
D28*
X927100Y234950D02*
X927100Y221488D01*
D29*
X927100Y234950D03*
D28*
X355600Y431800D02*
X355600Y462788D01*
X362712Y469900D01*
X667900Y266700D02*
X717170Y315970D01*
X733035Y315970D01*
X758435Y328670D02*
X765130Y335366D01*
X793070Y370235D02*
X799766Y376930D01*
X846065Y365500D02*
X855300Y365500D01*
X758435Y328670D02*
X745735Y328670D01*
X834635Y376930D02*
X846065Y365500D01*
X765130Y342295D02*
X765130Y335366D01*
X765130Y342295D02*
X776906Y354070D01*
X783835Y354070D01*
X793070Y363306D01*
X793070Y370235D01*
X799766Y376930D02*
X834635Y376930D01*
X745735Y328670D02*
X733035Y315970D01*
D30*
X844550Y304800D03*
D28*
X844550Y267850D02*
X845700Y266700D01*
X844550Y267850D02*
X844550Y304800D01*
X796651Y381000D02*
X797661Y382010D01*
X866730Y354070D02*
X880700Y340100D01*
X866730Y354070D02*
X866730Y370235D01*
X854955Y382010D01*
X797661Y382010D01*
X533400Y381000D02*
X482600Y431800D01*
X533400Y381000D02*
X796651Y381000D01*
X856685Y264297D02*
X844928Y252540D01*
X736510Y134463D02*
X728538Y126490D01*
X592263Y126490D02*
X563928Y154825D01*
X495300Y154825D01*
X856685Y290685D02*
X906100Y340100D01*
X844928Y252540D02*
X799843Y252540D01*
X736510Y189208D01*
X736510Y134463D01*
X856685Y264297D02*
X856685Y290685D01*
X728538Y126490D02*
X592263Y126490D01*
X925938Y209150D02*
X927100Y210312D01*
X925938Y209150D02*
X900700Y209150D01*
X775700Y209150D01*
X927100Y210312D02*
X939800Y210312D01*
X939800Y349250D01*
X912120Y376930D02*
X892130Y376930D01*
X880700Y365500D01*
X912120Y376930D02*
X939800Y349250D01*
X749300Y213487D02*
X744963Y209150D01*
X722900Y209150D01*
X597900Y209150D01*
X756158Y220345D02*
X756158Y248158D01*
X756158Y220345D02*
X749300Y213487D01*
X756158Y248158D02*
X843870Y335870D01*
X843870Y344835D01*
X850566Y351530D01*
X869270Y335366D02*
X875966Y328670D01*
X885435Y328670D01*
X892130Y335366D01*
X860035Y351530D02*
X850566Y351530D01*
X860035Y351530D02*
X869270Y342295D01*
X869270Y335366D01*
X892130Y335366D02*
X892130Y351530D01*
X906100Y365500D01*
X387350Y127000D02*
X387350Y107950D01*
X470750Y107950D01*
X474300Y111500D01*
X387350Y127000D02*
X368300Y146050D01*
X368300Y196850D01*
X374650Y203200D01*
X387350Y203200D01*
X381000Y431800D02*
X381000Y462788D01*
X373888Y469900D01*
D31*
X260350Y152400D02*
X234950Y152400D01*
X203200Y120650D02*
X165100Y120650D01*
X165100Y165100D01*
X203200Y120650D02*
X234950Y152400D01*
X190500Y165100D02*
X165100Y165100D01*
X228600Y177800D02*
X260350Y177800D01*
X228600Y177800D02*
X190500Y139700D01*
X190500Y254000D02*
X234950Y254000D01*
X260350Y228600D01*
X260350Y203200D02*
X215900Y203200D01*
X190500Y228600D01*
M02*
