G04 EAGLE Gerber RS-274X export*
G75*
%MOMM*%
%FSLAX34Y34*%
%LPD*%
%INSoldermask Bottom*%
%IPPOS*%
%AMOC8*
5,1,8,0,0,1.08239X$1,22.5*%
G01*
%ADD10C,1.803400*%
%ADD11C,2.112400*%
%ADD12R,1.803400X1.803400*%
%ADD13C,1.272400*%
%ADD14R,1.440400X1.440400*%
%ADD15C,1.440400*%
%ADD16C,3.372400*%
%ADD17R,1.930400X1.930400*%
%ADD18C,1.930400*%
%ADD19C,2.336800*%
%ADD20C,3.652400*%
%ADD21R,1.676400X1.676400*%
%ADD22P,1.814519X8X202.500000*%
%ADD23C,4.597400*%


D10*
X190500Y165100D03*
X190500Y139700D03*
X190500Y254000D03*
X190500Y228600D03*
D11*
X900700Y209150D03*
X900700Y159150D03*
X775700Y159150D03*
X775700Y209150D03*
X722900Y209150D03*
X722900Y159150D03*
X597900Y159150D03*
X597900Y209150D03*
D12*
X482600Y431800D03*
D10*
X457200Y431800D03*
X431800Y431800D03*
D13*
X495300Y219825D03*
X495300Y154825D03*
D14*
X749300Y393700D03*
D15*
X724300Y393700D03*
X704300Y393700D03*
X679300Y393700D03*
D16*
X780000Y420800D03*
X648600Y420800D03*
D17*
X387350Y304800D03*
D18*
X387350Y279400D03*
X387350Y254000D03*
X387350Y228600D03*
X387350Y203200D03*
X387350Y177800D03*
X387350Y152400D03*
X387350Y127000D03*
D19*
X300770Y304800D03*
X335770Y304800D03*
D18*
X260350Y254000D03*
X260350Y279400D03*
X260350Y203200D03*
X260350Y228600D03*
X260350Y152400D03*
X260350Y177800D03*
D20*
X260350Y114300D03*
X260350Y317500D03*
D12*
X381000Y431800D03*
D10*
X355600Y431800D03*
X330200Y431800D03*
X279400Y431800D03*
X254000Y431800D03*
D21*
X906100Y86100D03*
D22*
X906100Y111500D03*
X880700Y86100D03*
X880700Y111500D03*
X855300Y86100D03*
X855300Y111500D03*
X829900Y86100D03*
X829900Y111500D03*
X804500Y86100D03*
X804500Y111500D03*
X779100Y86100D03*
X779100Y111500D03*
X753700Y86100D03*
X753700Y111500D03*
X728300Y86100D03*
X728300Y111500D03*
X702900Y86100D03*
X702900Y111500D03*
X677500Y86100D03*
X677500Y111500D03*
X652100Y86100D03*
X652100Y111500D03*
X626700Y86100D03*
X626700Y111500D03*
X601300Y86100D03*
X601300Y111500D03*
X575900Y86100D03*
X575900Y111500D03*
X550500Y86100D03*
X550500Y111500D03*
X525100Y86100D03*
X525100Y111500D03*
X499700Y86100D03*
X499700Y111500D03*
X474300Y86100D03*
X474300Y111500D03*
D21*
X906100Y340100D03*
D22*
X906100Y365500D03*
X880700Y340100D03*
X880700Y365500D03*
X855300Y340100D03*
X855300Y365500D03*
X829900Y340100D03*
X829900Y365500D03*
X804500Y340100D03*
X804500Y365500D03*
X779100Y340100D03*
X779100Y365500D03*
X753700Y340100D03*
X753700Y365500D03*
X728300Y340100D03*
X728300Y365500D03*
X702900Y340100D03*
X702900Y365500D03*
X677500Y340100D03*
X677500Y365500D03*
X652100Y340100D03*
X652100Y365500D03*
X626700Y340100D03*
X626700Y365500D03*
X601300Y340100D03*
X601300Y365500D03*
X575900Y340100D03*
X575900Y365500D03*
X550500Y340100D03*
X550500Y365500D03*
X525100Y340100D03*
X525100Y365500D03*
X499700Y340100D03*
X499700Y365500D03*
X474300Y340100D03*
X474300Y365500D03*
D23*
X965200Y457200D03*
X177800Y457200D03*
X965200Y50800D03*
X177800Y50800D03*
M02*
