G04 EAGLE Gerber RS-274X export*
G75*
%MOMM*%
%FSLAX34Y34*%
%LPD*%
%INSoldermask Top*%
%IPPOS*%
%AMOC8*
5,1,8,0,0,1.08239X$1,22.5*%
G01*
%ADD10C,1.803400*%
%ADD11R,0.952400X0.952400*%
%ADD12C,2.112400*%
%ADD13R,0.660400X0.762000*%
%ADD14R,1.803400X1.803400*%
%ADD15C,1.272400*%
%ADD16R,1.440400X1.440400*%
%ADD17C,1.440400*%
%ADD18C,3.372400*%
%ADD19R,1.930400X1.930400*%
%ADD20C,1.930400*%
%ADD21C,2.336800*%
%ADD22C,3.652400*%
%ADD23R,1.676400X1.676400*%
%ADD24P,1.814519X8X202.500000*%
%ADD25R,0.762000X0.660400*%
%ADD26C,4.597400*%
%ADD27C,0.609600*%
%ADD28C,1.168400*%


D10*
X190500Y165100D03*
X190500Y139700D03*
X190500Y254000D03*
X190500Y228600D03*
D11*
X845700Y266700D03*
X830700Y266700D03*
X667900Y266700D03*
X652900Y266700D03*
D12*
X900700Y209150D03*
X900700Y159150D03*
X775700Y159150D03*
X775700Y209150D03*
X722900Y209150D03*
X722900Y159150D03*
X597900Y159150D03*
X597900Y209150D03*
D13*
X927100Y210312D03*
X927100Y221488D03*
X749300Y213487D03*
X749300Y224663D03*
D14*
X482600Y431800D03*
D10*
X457200Y431800D03*
X431800Y431800D03*
D15*
X495300Y219825D03*
X495300Y154825D03*
D16*
X749300Y393700D03*
D17*
X724300Y393700D03*
X704300Y393700D03*
X679300Y393700D03*
D18*
X780000Y420800D03*
X648600Y420800D03*
D19*
X387350Y304800D03*
D20*
X387350Y279400D03*
X387350Y254000D03*
X387350Y228600D03*
X387350Y203200D03*
X387350Y177800D03*
X387350Y152400D03*
X387350Y127000D03*
D21*
X300770Y304800D03*
X335770Y304800D03*
D20*
X260350Y254000D03*
X260350Y279400D03*
X260350Y203200D03*
X260350Y228600D03*
X260350Y152400D03*
X260350Y177800D03*
D22*
X260350Y114300D03*
X260350Y317500D03*
D14*
X381000Y431800D03*
D10*
X355600Y431800D03*
X330200Y431800D03*
X279400Y431800D03*
X254000Y431800D03*
D23*
X906100Y86100D03*
D24*
X906100Y111500D03*
X880700Y86100D03*
X880700Y111500D03*
X855300Y86100D03*
X855300Y111500D03*
X829900Y86100D03*
X829900Y111500D03*
X804500Y86100D03*
X804500Y111500D03*
X779100Y86100D03*
X779100Y111500D03*
X753700Y86100D03*
X753700Y111500D03*
X728300Y86100D03*
X728300Y111500D03*
X702900Y86100D03*
X702900Y111500D03*
X677500Y86100D03*
X677500Y111500D03*
X652100Y86100D03*
X652100Y111500D03*
X626700Y86100D03*
X626700Y111500D03*
X601300Y86100D03*
X601300Y111500D03*
X575900Y86100D03*
X575900Y111500D03*
X550500Y86100D03*
X550500Y111500D03*
X525100Y86100D03*
X525100Y111500D03*
X499700Y86100D03*
X499700Y111500D03*
X474300Y86100D03*
X474300Y111500D03*
D23*
X906100Y340100D03*
D24*
X906100Y365500D03*
X880700Y340100D03*
X880700Y365500D03*
X855300Y340100D03*
X855300Y365500D03*
X829900Y340100D03*
X829900Y365500D03*
X804500Y340100D03*
X804500Y365500D03*
X779100Y340100D03*
X779100Y365500D03*
X753700Y340100D03*
X753700Y365500D03*
X728300Y340100D03*
X728300Y365500D03*
X702900Y340100D03*
X702900Y365500D03*
X677500Y340100D03*
X677500Y365500D03*
X652100Y340100D03*
X652100Y365500D03*
X626700Y340100D03*
X626700Y365500D03*
X601300Y340100D03*
X601300Y365500D03*
X575900Y340100D03*
X575900Y365500D03*
X550500Y340100D03*
X550500Y365500D03*
X525100Y340100D03*
X525100Y365500D03*
X499700Y340100D03*
X499700Y365500D03*
X474300Y340100D03*
X474300Y365500D03*
D25*
X362712Y469900D03*
X373888Y469900D03*
D26*
X965200Y457200D03*
X177800Y457200D03*
X965200Y50800D03*
X177800Y50800D03*
D13*
X914400Y470662D03*
X914400Y481838D03*
D27*
X170180Y101600D02*
X170182Y101787D01*
X170189Y101974D01*
X170201Y102161D01*
X170217Y102347D01*
X170237Y102533D01*
X170262Y102718D01*
X170292Y102903D01*
X170326Y103087D01*
X170365Y103270D01*
X170408Y103452D01*
X170456Y103632D01*
X170508Y103812D01*
X170565Y103990D01*
X170625Y104167D01*
X170691Y104342D01*
X170760Y104516D01*
X170834Y104688D01*
X170912Y104858D01*
X170994Y105026D01*
X171080Y105192D01*
X171170Y105356D01*
X171264Y105517D01*
X171362Y105677D01*
X171464Y105833D01*
X171570Y105988D01*
X171680Y106139D01*
X171793Y106288D01*
X171910Y106434D01*
X172030Y106577D01*
X172154Y106717D01*
X172281Y106854D01*
X172412Y106988D01*
X172546Y107119D01*
X172683Y107246D01*
X172823Y107370D01*
X172966Y107490D01*
X173112Y107607D01*
X173261Y107720D01*
X173412Y107830D01*
X173567Y107936D01*
X173723Y108038D01*
X173883Y108136D01*
X174044Y108230D01*
X174208Y108320D01*
X174374Y108406D01*
X174542Y108488D01*
X174712Y108566D01*
X174884Y108640D01*
X175058Y108709D01*
X175233Y108775D01*
X175410Y108835D01*
X175588Y108892D01*
X175768Y108944D01*
X175948Y108992D01*
X176130Y109035D01*
X176313Y109074D01*
X176497Y109108D01*
X176682Y109138D01*
X176867Y109163D01*
X177053Y109183D01*
X177239Y109199D01*
X177426Y109211D01*
X177613Y109218D01*
X177800Y109220D01*
X177987Y109218D01*
X178174Y109211D01*
X178361Y109199D01*
X178547Y109183D01*
X178733Y109163D01*
X178918Y109138D01*
X179103Y109108D01*
X179287Y109074D01*
X179470Y109035D01*
X179652Y108992D01*
X179832Y108944D01*
X180012Y108892D01*
X180190Y108835D01*
X180367Y108775D01*
X180542Y108709D01*
X180716Y108640D01*
X180888Y108566D01*
X181058Y108488D01*
X181226Y108406D01*
X181392Y108320D01*
X181556Y108230D01*
X181717Y108136D01*
X181877Y108038D01*
X182033Y107936D01*
X182188Y107830D01*
X182339Y107720D01*
X182488Y107607D01*
X182634Y107490D01*
X182777Y107370D01*
X182917Y107246D01*
X183054Y107119D01*
X183188Y106988D01*
X183319Y106854D01*
X183446Y106717D01*
X183570Y106577D01*
X183690Y106434D01*
X183807Y106288D01*
X183920Y106139D01*
X184030Y105988D01*
X184136Y105833D01*
X184238Y105677D01*
X184336Y105517D01*
X184430Y105356D01*
X184520Y105192D01*
X184606Y105026D01*
X184688Y104858D01*
X184766Y104688D01*
X184840Y104516D01*
X184909Y104342D01*
X184975Y104167D01*
X185035Y103990D01*
X185092Y103812D01*
X185144Y103632D01*
X185192Y103452D01*
X185235Y103270D01*
X185274Y103087D01*
X185308Y102903D01*
X185338Y102718D01*
X185363Y102533D01*
X185383Y102347D01*
X185399Y102161D01*
X185411Y101974D01*
X185418Y101787D01*
X185420Y101600D01*
X185418Y101413D01*
X185411Y101226D01*
X185399Y101039D01*
X185383Y100853D01*
X185363Y100667D01*
X185338Y100482D01*
X185308Y100297D01*
X185274Y100113D01*
X185235Y99930D01*
X185192Y99748D01*
X185144Y99568D01*
X185092Y99388D01*
X185035Y99210D01*
X184975Y99033D01*
X184909Y98858D01*
X184840Y98684D01*
X184766Y98512D01*
X184688Y98342D01*
X184606Y98174D01*
X184520Y98008D01*
X184430Y97844D01*
X184336Y97683D01*
X184238Y97523D01*
X184136Y97367D01*
X184030Y97212D01*
X183920Y97061D01*
X183807Y96912D01*
X183690Y96766D01*
X183570Y96623D01*
X183446Y96483D01*
X183319Y96346D01*
X183188Y96212D01*
X183054Y96081D01*
X182917Y95954D01*
X182777Y95830D01*
X182634Y95710D01*
X182488Y95593D01*
X182339Y95480D01*
X182188Y95370D01*
X182033Y95264D01*
X181877Y95162D01*
X181717Y95064D01*
X181556Y94970D01*
X181392Y94880D01*
X181226Y94794D01*
X181058Y94712D01*
X180888Y94634D01*
X180716Y94560D01*
X180542Y94491D01*
X180367Y94425D01*
X180190Y94365D01*
X180012Y94308D01*
X179832Y94256D01*
X179652Y94208D01*
X179470Y94165D01*
X179287Y94126D01*
X179103Y94092D01*
X178918Y94062D01*
X178733Y94037D01*
X178547Y94017D01*
X178361Y94001D01*
X178174Y93989D01*
X177987Y93982D01*
X177800Y93980D01*
X177613Y93982D01*
X177426Y93989D01*
X177239Y94001D01*
X177053Y94017D01*
X176867Y94037D01*
X176682Y94062D01*
X176497Y94092D01*
X176313Y94126D01*
X176130Y94165D01*
X175948Y94208D01*
X175768Y94256D01*
X175588Y94308D01*
X175410Y94365D01*
X175233Y94425D01*
X175058Y94491D01*
X174884Y94560D01*
X174712Y94634D01*
X174542Y94712D01*
X174374Y94794D01*
X174208Y94880D01*
X174044Y94970D01*
X173883Y95064D01*
X173723Y95162D01*
X173567Y95264D01*
X173412Y95370D01*
X173261Y95480D01*
X173112Y95593D01*
X172966Y95710D01*
X172823Y95830D01*
X172683Y95954D01*
X172546Y96081D01*
X172412Y96212D01*
X172281Y96346D01*
X172154Y96483D01*
X172030Y96623D01*
X171910Y96766D01*
X171793Y96912D01*
X171680Y97061D01*
X171570Y97212D01*
X171464Y97367D01*
X171362Y97523D01*
X171264Y97683D01*
X171170Y97844D01*
X171080Y98008D01*
X170994Y98174D01*
X170912Y98342D01*
X170834Y98512D01*
X170760Y98684D01*
X170691Y98858D01*
X170625Y99033D01*
X170565Y99210D01*
X170508Y99388D01*
X170456Y99568D01*
X170408Y99748D01*
X170365Y99930D01*
X170326Y100113D01*
X170292Y100297D01*
X170262Y100482D01*
X170237Y100667D01*
X170217Y100853D01*
X170201Y101039D01*
X170189Y101226D01*
X170182Y101413D01*
X170180Y101600D01*
D28*
X177800Y101600D03*
D27*
X170180Y406400D02*
X170182Y406587D01*
X170189Y406774D01*
X170201Y406961D01*
X170217Y407147D01*
X170237Y407333D01*
X170262Y407518D01*
X170292Y407703D01*
X170326Y407887D01*
X170365Y408070D01*
X170408Y408252D01*
X170456Y408432D01*
X170508Y408612D01*
X170565Y408790D01*
X170625Y408967D01*
X170691Y409142D01*
X170760Y409316D01*
X170834Y409488D01*
X170912Y409658D01*
X170994Y409826D01*
X171080Y409992D01*
X171170Y410156D01*
X171264Y410317D01*
X171362Y410477D01*
X171464Y410633D01*
X171570Y410788D01*
X171680Y410939D01*
X171793Y411088D01*
X171910Y411234D01*
X172030Y411377D01*
X172154Y411517D01*
X172281Y411654D01*
X172412Y411788D01*
X172546Y411919D01*
X172683Y412046D01*
X172823Y412170D01*
X172966Y412290D01*
X173112Y412407D01*
X173261Y412520D01*
X173412Y412630D01*
X173567Y412736D01*
X173723Y412838D01*
X173883Y412936D01*
X174044Y413030D01*
X174208Y413120D01*
X174374Y413206D01*
X174542Y413288D01*
X174712Y413366D01*
X174884Y413440D01*
X175058Y413509D01*
X175233Y413575D01*
X175410Y413635D01*
X175588Y413692D01*
X175768Y413744D01*
X175948Y413792D01*
X176130Y413835D01*
X176313Y413874D01*
X176497Y413908D01*
X176682Y413938D01*
X176867Y413963D01*
X177053Y413983D01*
X177239Y413999D01*
X177426Y414011D01*
X177613Y414018D01*
X177800Y414020D01*
X177987Y414018D01*
X178174Y414011D01*
X178361Y413999D01*
X178547Y413983D01*
X178733Y413963D01*
X178918Y413938D01*
X179103Y413908D01*
X179287Y413874D01*
X179470Y413835D01*
X179652Y413792D01*
X179832Y413744D01*
X180012Y413692D01*
X180190Y413635D01*
X180367Y413575D01*
X180542Y413509D01*
X180716Y413440D01*
X180888Y413366D01*
X181058Y413288D01*
X181226Y413206D01*
X181392Y413120D01*
X181556Y413030D01*
X181717Y412936D01*
X181877Y412838D01*
X182033Y412736D01*
X182188Y412630D01*
X182339Y412520D01*
X182488Y412407D01*
X182634Y412290D01*
X182777Y412170D01*
X182917Y412046D01*
X183054Y411919D01*
X183188Y411788D01*
X183319Y411654D01*
X183446Y411517D01*
X183570Y411377D01*
X183690Y411234D01*
X183807Y411088D01*
X183920Y410939D01*
X184030Y410788D01*
X184136Y410633D01*
X184238Y410477D01*
X184336Y410317D01*
X184430Y410156D01*
X184520Y409992D01*
X184606Y409826D01*
X184688Y409658D01*
X184766Y409488D01*
X184840Y409316D01*
X184909Y409142D01*
X184975Y408967D01*
X185035Y408790D01*
X185092Y408612D01*
X185144Y408432D01*
X185192Y408252D01*
X185235Y408070D01*
X185274Y407887D01*
X185308Y407703D01*
X185338Y407518D01*
X185363Y407333D01*
X185383Y407147D01*
X185399Y406961D01*
X185411Y406774D01*
X185418Y406587D01*
X185420Y406400D01*
X185418Y406213D01*
X185411Y406026D01*
X185399Y405839D01*
X185383Y405653D01*
X185363Y405467D01*
X185338Y405282D01*
X185308Y405097D01*
X185274Y404913D01*
X185235Y404730D01*
X185192Y404548D01*
X185144Y404368D01*
X185092Y404188D01*
X185035Y404010D01*
X184975Y403833D01*
X184909Y403658D01*
X184840Y403484D01*
X184766Y403312D01*
X184688Y403142D01*
X184606Y402974D01*
X184520Y402808D01*
X184430Y402644D01*
X184336Y402483D01*
X184238Y402323D01*
X184136Y402167D01*
X184030Y402012D01*
X183920Y401861D01*
X183807Y401712D01*
X183690Y401566D01*
X183570Y401423D01*
X183446Y401283D01*
X183319Y401146D01*
X183188Y401012D01*
X183054Y400881D01*
X182917Y400754D01*
X182777Y400630D01*
X182634Y400510D01*
X182488Y400393D01*
X182339Y400280D01*
X182188Y400170D01*
X182033Y400064D01*
X181877Y399962D01*
X181717Y399864D01*
X181556Y399770D01*
X181392Y399680D01*
X181226Y399594D01*
X181058Y399512D01*
X180888Y399434D01*
X180716Y399360D01*
X180542Y399291D01*
X180367Y399225D01*
X180190Y399165D01*
X180012Y399108D01*
X179832Y399056D01*
X179652Y399008D01*
X179470Y398965D01*
X179287Y398926D01*
X179103Y398892D01*
X178918Y398862D01*
X178733Y398837D01*
X178547Y398817D01*
X178361Y398801D01*
X178174Y398789D01*
X177987Y398782D01*
X177800Y398780D01*
X177613Y398782D01*
X177426Y398789D01*
X177239Y398801D01*
X177053Y398817D01*
X176867Y398837D01*
X176682Y398862D01*
X176497Y398892D01*
X176313Y398926D01*
X176130Y398965D01*
X175948Y399008D01*
X175768Y399056D01*
X175588Y399108D01*
X175410Y399165D01*
X175233Y399225D01*
X175058Y399291D01*
X174884Y399360D01*
X174712Y399434D01*
X174542Y399512D01*
X174374Y399594D01*
X174208Y399680D01*
X174044Y399770D01*
X173883Y399864D01*
X173723Y399962D01*
X173567Y400064D01*
X173412Y400170D01*
X173261Y400280D01*
X173112Y400393D01*
X172966Y400510D01*
X172823Y400630D01*
X172683Y400754D01*
X172546Y400881D01*
X172412Y401012D01*
X172281Y401146D01*
X172154Y401283D01*
X172030Y401423D01*
X171910Y401566D01*
X171793Y401712D01*
X171680Y401861D01*
X171570Y402012D01*
X171464Y402167D01*
X171362Y402323D01*
X171264Y402483D01*
X171170Y402644D01*
X171080Y402808D01*
X170994Y402974D01*
X170912Y403142D01*
X170834Y403312D01*
X170760Y403484D01*
X170691Y403658D01*
X170625Y403833D01*
X170565Y404010D01*
X170508Y404188D01*
X170456Y404368D01*
X170408Y404548D01*
X170365Y404730D01*
X170326Y404913D01*
X170292Y405097D01*
X170262Y405282D01*
X170237Y405467D01*
X170217Y405653D01*
X170201Y405839D01*
X170189Y406026D01*
X170182Y406213D01*
X170180Y406400D01*
D28*
X177800Y406400D03*
D27*
X957580Y101600D02*
X957582Y101787D01*
X957589Y101974D01*
X957601Y102161D01*
X957617Y102347D01*
X957637Y102533D01*
X957662Y102718D01*
X957692Y102903D01*
X957726Y103087D01*
X957765Y103270D01*
X957808Y103452D01*
X957856Y103632D01*
X957908Y103812D01*
X957965Y103990D01*
X958025Y104167D01*
X958091Y104342D01*
X958160Y104516D01*
X958234Y104688D01*
X958312Y104858D01*
X958394Y105026D01*
X958480Y105192D01*
X958570Y105356D01*
X958664Y105517D01*
X958762Y105677D01*
X958864Y105833D01*
X958970Y105988D01*
X959080Y106139D01*
X959193Y106288D01*
X959310Y106434D01*
X959430Y106577D01*
X959554Y106717D01*
X959681Y106854D01*
X959812Y106988D01*
X959946Y107119D01*
X960083Y107246D01*
X960223Y107370D01*
X960366Y107490D01*
X960512Y107607D01*
X960661Y107720D01*
X960812Y107830D01*
X960967Y107936D01*
X961123Y108038D01*
X961283Y108136D01*
X961444Y108230D01*
X961608Y108320D01*
X961774Y108406D01*
X961942Y108488D01*
X962112Y108566D01*
X962284Y108640D01*
X962458Y108709D01*
X962633Y108775D01*
X962810Y108835D01*
X962988Y108892D01*
X963168Y108944D01*
X963348Y108992D01*
X963530Y109035D01*
X963713Y109074D01*
X963897Y109108D01*
X964082Y109138D01*
X964267Y109163D01*
X964453Y109183D01*
X964639Y109199D01*
X964826Y109211D01*
X965013Y109218D01*
X965200Y109220D01*
X965387Y109218D01*
X965574Y109211D01*
X965761Y109199D01*
X965947Y109183D01*
X966133Y109163D01*
X966318Y109138D01*
X966503Y109108D01*
X966687Y109074D01*
X966870Y109035D01*
X967052Y108992D01*
X967232Y108944D01*
X967412Y108892D01*
X967590Y108835D01*
X967767Y108775D01*
X967942Y108709D01*
X968116Y108640D01*
X968288Y108566D01*
X968458Y108488D01*
X968626Y108406D01*
X968792Y108320D01*
X968956Y108230D01*
X969117Y108136D01*
X969277Y108038D01*
X969433Y107936D01*
X969588Y107830D01*
X969739Y107720D01*
X969888Y107607D01*
X970034Y107490D01*
X970177Y107370D01*
X970317Y107246D01*
X970454Y107119D01*
X970588Y106988D01*
X970719Y106854D01*
X970846Y106717D01*
X970970Y106577D01*
X971090Y106434D01*
X971207Y106288D01*
X971320Y106139D01*
X971430Y105988D01*
X971536Y105833D01*
X971638Y105677D01*
X971736Y105517D01*
X971830Y105356D01*
X971920Y105192D01*
X972006Y105026D01*
X972088Y104858D01*
X972166Y104688D01*
X972240Y104516D01*
X972309Y104342D01*
X972375Y104167D01*
X972435Y103990D01*
X972492Y103812D01*
X972544Y103632D01*
X972592Y103452D01*
X972635Y103270D01*
X972674Y103087D01*
X972708Y102903D01*
X972738Y102718D01*
X972763Y102533D01*
X972783Y102347D01*
X972799Y102161D01*
X972811Y101974D01*
X972818Y101787D01*
X972820Y101600D01*
X972818Y101413D01*
X972811Y101226D01*
X972799Y101039D01*
X972783Y100853D01*
X972763Y100667D01*
X972738Y100482D01*
X972708Y100297D01*
X972674Y100113D01*
X972635Y99930D01*
X972592Y99748D01*
X972544Y99568D01*
X972492Y99388D01*
X972435Y99210D01*
X972375Y99033D01*
X972309Y98858D01*
X972240Y98684D01*
X972166Y98512D01*
X972088Y98342D01*
X972006Y98174D01*
X971920Y98008D01*
X971830Y97844D01*
X971736Y97683D01*
X971638Y97523D01*
X971536Y97367D01*
X971430Y97212D01*
X971320Y97061D01*
X971207Y96912D01*
X971090Y96766D01*
X970970Y96623D01*
X970846Y96483D01*
X970719Y96346D01*
X970588Y96212D01*
X970454Y96081D01*
X970317Y95954D01*
X970177Y95830D01*
X970034Y95710D01*
X969888Y95593D01*
X969739Y95480D01*
X969588Y95370D01*
X969433Y95264D01*
X969277Y95162D01*
X969117Y95064D01*
X968956Y94970D01*
X968792Y94880D01*
X968626Y94794D01*
X968458Y94712D01*
X968288Y94634D01*
X968116Y94560D01*
X967942Y94491D01*
X967767Y94425D01*
X967590Y94365D01*
X967412Y94308D01*
X967232Y94256D01*
X967052Y94208D01*
X966870Y94165D01*
X966687Y94126D01*
X966503Y94092D01*
X966318Y94062D01*
X966133Y94037D01*
X965947Y94017D01*
X965761Y94001D01*
X965574Y93989D01*
X965387Y93982D01*
X965200Y93980D01*
X965013Y93982D01*
X964826Y93989D01*
X964639Y94001D01*
X964453Y94017D01*
X964267Y94037D01*
X964082Y94062D01*
X963897Y94092D01*
X963713Y94126D01*
X963530Y94165D01*
X963348Y94208D01*
X963168Y94256D01*
X962988Y94308D01*
X962810Y94365D01*
X962633Y94425D01*
X962458Y94491D01*
X962284Y94560D01*
X962112Y94634D01*
X961942Y94712D01*
X961774Y94794D01*
X961608Y94880D01*
X961444Y94970D01*
X961283Y95064D01*
X961123Y95162D01*
X960967Y95264D01*
X960812Y95370D01*
X960661Y95480D01*
X960512Y95593D01*
X960366Y95710D01*
X960223Y95830D01*
X960083Y95954D01*
X959946Y96081D01*
X959812Y96212D01*
X959681Y96346D01*
X959554Y96483D01*
X959430Y96623D01*
X959310Y96766D01*
X959193Y96912D01*
X959080Y97061D01*
X958970Y97212D01*
X958864Y97367D01*
X958762Y97523D01*
X958664Y97683D01*
X958570Y97844D01*
X958480Y98008D01*
X958394Y98174D01*
X958312Y98342D01*
X958234Y98512D01*
X958160Y98684D01*
X958091Y98858D01*
X958025Y99033D01*
X957965Y99210D01*
X957908Y99388D01*
X957856Y99568D01*
X957808Y99748D01*
X957765Y99930D01*
X957726Y100113D01*
X957692Y100297D01*
X957662Y100482D01*
X957637Y100667D01*
X957617Y100853D01*
X957601Y101039D01*
X957589Y101226D01*
X957582Y101413D01*
X957580Y101600D01*
D28*
X965200Y101600D03*
M02*
